<svg width="272" height="91" viewBox="0 0 272 91" fill="none" xmlns="http://www.w3.org/2000/svg">
<g clip-path="url(#clip0_7646_22)">
<path d="M91.3317 65.6753H92.409C93.2318 65.6753 93.877 65.8707 94.3328 66.2615C94.7886 66.6523 95.0195 67.1734 95.0195 67.8129C95.0195 68.4525 94.7946 68.9499 94.3447 69.3466C93.8948 69.7374 93.2496 69.9328 92.4149 69.9328H91.3376V65.6812L91.3317 65.6753ZM106.272 78.2881C106.272 76.5472 105.834 75.1201 104.958 74.0009C104.082 72.8817 102.798 72.0054 101.093 71.3777V71.2948C102.466 70.8092 103.538 70.0868 104.307 69.1157C105.083 68.1505 105.461 66.9306 105.461 65.468C105.461 62.6376 104.141 60.7012 101.501 59.6472C98.8612 58.5932 95.6174 58.0662 91.7756 58.0662H79.6348V87.1585H92.3972C96.3869 87.1585 99.69 86.5012 102.318 85.1748C104.946 83.8543 106.261 81.5508 106.261 78.2703L106.272 78.2881ZM94.6939 79.3125C94.1789 79.7566 93.4449 79.9757 92.486 79.9757H91.3317V75.1674H92.486C93.4272 75.1674 94.1612 75.3984 94.6821 75.8425C95.203 76.2925 95.4694 76.8728 95.4694 77.5775C95.4694 78.2822 95.2089 78.8625 94.6939 79.3066V79.3125Z" fill="#FFB000"/>
<path d="M120.467 58.078H108.504V87.1762H120.467V58.078Z" fill="#FFB000"/>
<path d="M150.935 67.9669V58.078H122.74V67.9669H130.856V87.1762H142.813V67.9669H150.929H150.935Z" fill="#FFB000"/>
<path d="M176.661 75.4162C175.714 75.9373 174.666 76.3518 173.518 76.6597C172.369 76.9736 171.209 77.1275 170.037 77.1275C168.865 77.1275 167.752 76.944 166.87 76.5768C165.982 76.2097 165.307 75.7004 164.84 75.0491C164.372 74.3918 164.141 73.6516 164.141 72.8167C164.141 71.9817 164.372 71.2356 164.84 70.5843C165.307 69.9329 165.976 69.4237 166.87 69.0506C167.758 68.6835 168.812 68.4999 170.037 68.4999C171.185 68.4999 172.322 68.6479 173.441 68.9381C174.565 69.2282 175.578 69.6309 176.483 70.1342V59.594C175.601 59.138 174.447 58.7709 173.02 58.4926C171.594 58.2143 170.12 58.0721 168.616 58.0721C165.503 58.0721 162.709 58.7057 160.234 59.9611C157.754 61.2224 155.818 62.9515 154.415 65.1661C153.013 67.3748 152.314 69.8618 152.314 72.6213C152.314 75.3807 153.013 77.8499 154.41 80.0646C155.807 82.2792 157.742 84.0201 160.211 85.2755C162.679 86.5368 165.455 87.1645 168.545 87.1645C170.078 87.1645 171.576 87.0105 173.056 86.7085C174.53 86.4065 175.732 86.0098 176.667 85.5301V75.4103L176.661 75.4162Z" fill="#FFB000"/>
<path d="M198.078 75.0016C197.687 75.6767 197.172 76.2037 196.521 76.5886C195.864 76.9794 195.142 77.1689 194.36 77.1689C193.579 77.1689 192.874 76.9794 192.217 76.5886C191.56 76.2037 191.039 75.6767 190.66 75.0135C190.282 74.3503 190.086 73.616 190.086 72.8225C190.086 72.0291 190.282 71.2889 190.66 70.6257C191.039 69.9624 191.56 69.4354 192.217 69.0387C192.874 68.6479 193.591 68.4465 194.36 68.4465C195.13 68.4465 195.852 68.6419 196.509 69.0387C197.166 69.4354 197.687 69.9624 198.078 70.6316C198.462 71.3066 198.652 72.035 198.652 72.8166C198.652 73.5982 198.456 74.3266 198.078 74.9957V75.0016ZM208.005 80.0053C209.396 77.7847 210.094 75.3214 210.094 72.6271C210.094 69.9328 209.402 67.4695 208.016 65.2489C206.631 63.0284 204.731 61.2756 202.322 59.9966C199.913 58.7234 197.261 58.078 194.36 58.078C191.46 58.078 188.808 58.7175 186.41 59.9966C184.007 61.2756 182.119 63.0284 180.728 65.2489C179.342 67.4695 178.65 69.9328 178.65 72.6271C178.65 75.3214 179.342 77.7847 180.728 80.0053C182.119 82.2259 184.007 83.9786 186.41 85.2577C188.814 86.5367 191.466 87.1762 194.36 87.1762C197.255 87.1762 199.913 86.5367 202.316 85.2577C204.719 83.9786 206.613 82.2259 208.005 80.0053Z" fill="#FFB000"/>
<path d="M224.774 58.078H212.811V87.1762H224.774V58.078Z" fill="#FFB000"/>
<path d="M245.931 69.9269L245.854 69.9684L238.774 58.078H227.93V87.1762H239.011V74.9543L239.088 74.9128L246.321 87.1762H257.012V58.078H245.937V69.9269H245.931Z" fill="#FFB000"/>
<path d="M92.0242 40.6629H92.1426L93.3383 45.4179H90.7337L92.0242 40.6629ZM89.3131 50.8005H94.6702L95.3213 53.4652H104.899L96.7716 31.4965H87.7681L79.6406 53.4652H88.6146L89.3131 50.8005Z" fill="#FFB000"/>
<path d="M115.122 38.9634H115.252C116.555 38.9634 117.59 39.2891 118.348 39.9405C119.106 40.5918 119.491 41.486 119.491 42.6347C119.491 43.3631 119.313 44.0085 118.958 44.5592C118.603 45.1099 118.099 45.5422 117.454 45.8442C116.809 46.1521 116.063 46.3001 115.223 46.3001H115.122V38.9516V38.9634ZM106.089 53.4652H115.092C117.525 53.4652 119.715 53.0151 121.669 52.1269C123.622 51.2327 125.161 49.9537 126.28 48.2957C127.405 46.6377 127.961 44.7013 127.961 42.4867C127.961 40.2721 127.399 38.3535 126.28 36.6836C125.161 35.0197 123.622 33.7406 121.663 32.8406C119.704 31.9405 117.496 31.4905 115.033 31.4905H106.089V53.4592V53.4652Z" fill="#FFB000"/>
<path d="M139.043 40.9649C139.333 40.4616 139.723 40.0589 140.221 39.7688C140.718 39.4727 141.256 39.3247 141.842 39.3247C142.429 39.3247 142.967 39.4727 143.459 39.7688C143.956 40.0649 144.352 40.4675 144.642 40.9709C144.932 41.4801 145.08 42.0308 145.08 42.623C145.08 43.2151 144.938 43.7658 144.642 44.2691C144.352 44.7784 143.962 45.1751 143.464 45.4653C142.973 45.7554 142.429 45.9035 141.837 45.9035C141.245 45.9035 140.712 45.7554 140.215 45.4653C139.717 45.1751 139.327 44.7784 139.037 44.2751C138.753 43.7717 138.61 43.221 138.61 42.617C138.61 42.013 138.753 41.4623 139.043 40.959V40.9649ZM135.84 52.0144C137.646 52.9797 139.652 53.4652 141.837 53.4652C144.021 53.4652 146.022 52.9797 147.833 52.0144C149.644 51.0492 151.077 49.7288 152.125 48.047C153.172 46.3713 153.699 44.5119 153.699 42.4749C153.699 40.4379 153.178 38.5786 152.131 36.9028C151.083 35.2211 149.65 33.9006 147.839 32.9354C146.022 31.9643 144.021 31.4846 141.831 31.4846C140.315 31.4846 138.895 31.7156 137.563 32.1774C137.415 32.2307 137.273 32.284 137.125 32.3432C137.125 32.3432 137.113 32.3432 137.107 32.3492C136.983 32.3965 136.846 32.4498 136.722 32.509C136.693 32.5209 136.669 32.5327 136.645 32.5446C136.539 32.5919 136.426 32.6452 136.32 32.6926C136.29 32.7104 136.255 32.7222 136.225 32.74C136.095 32.8051 135.964 32.8703 135.834 32.9413C134.023 33.9065 132.59 35.227 131.549 36.9087C131.489 37.0035 131.43 37.0982 131.377 37.1989C131.359 37.2285 131.341 37.264 131.324 37.2936C131.288 37.3587 131.247 37.4239 131.211 37.489C131.193 37.5245 131.17 37.566 131.152 37.6015C131.116 37.6667 131.087 37.7318 131.051 37.7969C131.034 37.8325 131.016 37.868 130.998 37.9035C130.957 37.9805 130.921 38.0634 130.886 38.1404C130.868 38.1818 130.85 38.2233 130.832 38.2647C130.803 38.3358 130.767 38.4128 130.738 38.4898C130.72 38.5371 130.702 38.5845 130.684 38.6319C130.667 38.6852 130.643 38.7385 130.625 38.7917C130.607 38.845 130.59 38.8983 130.566 38.9516C130.548 38.999 130.53 39.0464 130.519 39.0937C130.501 39.153 130.483 39.2063 130.459 39.2595C130.447 39.301 130.436 39.3424 130.424 39.3839C130.388 39.5082 130.353 39.6385 130.317 39.7629C130.311 39.7925 130.305 39.8162 130.294 39.8458C130.276 39.9168 130.258 39.9879 130.246 40.053C130.24 40.0886 130.228 40.1182 130.223 40.1537C130.211 40.2247 130.193 40.2958 130.181 40.3669C130.175 40.3965 130.169 40.4261 130.163 40.4557C130.152 40.5327 130.134 40.6096 130.122 40.6866C130.122 40.6866 130.122 40.6925 130.122 40.6985C130.092 40.888 130.063 41.0834 130.045 41.2729C130.004 41.6637 129.98 42.0663 129.98 42.4749C129.98 44.5119 130.501 46.3713 131.549 48.047C132.596 49.7288 134.023 51.0492 135.834 52.0144H135.84Z" fill="#FFB000"/>
<path d="M166.669 41.4505C166.249 41.8176 165.651 42.0012 164.869 42.0012H164.621V38.0279H164.869C165.639 38.0279 166.237 38.2114 166.657 38.5845C167.083 38.9575 167.296 39.4372 167.296 40.0293C167.296 40.6215 167.083 41.0893 166.669 41.4505ZM173.879 44.3994C174.802 43.1559 175.264 41.5926 175.264 39.7214C175.264 37.8502 174.767 36.2337 173.766 35.0079C172.766 33.7822 171.422 32.8939 169.729 32.3373C168.03 31.7807 166.106 31.4965 163.946 31.4965H155.582V53.4652H164.615V48.0293H164.893C166.835 48.0293 168.587 47.7391 170.149 47.147C171.712 46.5608 172.949 45.6429 173.873 44.3994H173.879Z" fill="#FFB000"/>
<path d="M192.164 53.4652V38.9634H198.297V31.4905H177.004V38.9634H183.131V53.4652H192.164Z" fill="#FFB000"/>
<path d="M209.248 31.4965H200.214V53.4652H209.248V31.4965Z" fill="#FFB000"/>
<path d="M212.136 31.4965V53.4652H220.501V44.2395L220.56 44.2099L226.023 53.4711H234.098V31.5024H225.727V40.4498L225.668 40.4794L220.323 31.5024H212.136V31.4965Z" fill="#FFB000"/>
<path d="M237.945 36.9205C236.85 38.62 236.311 40.5267 236.311 42.6525C236.311 44.7783 236.826 46.5429 237.851 48.1832C238.881 49.8175 240.343 51.1143 242.243 52.0558C244.143 52.9974 246.357 53.4711 248.867 53.4711C250.589 53.4711 252.158 53.2757 253.579 52.873C254.999 52.4763 256.142 51.9966 257.012 51.4341V41.0063H247.967V45.6251H250.104V46.7739C249.873 46.8508 249.583 46.8864 249.228 46.8864C248.494 46.8864 247.807 46.7206 247.18 46.4008C246.546 46.0751 246.043 45.6073 245.658 45.0033C245.274 44.3993 245.084 43.6888 245.084 42.8894C245.084 42.09 245.274 41.4208 245.646 40.8109C246.019 40.201 246.576 39.7154 247.322 39.372C248.068 39.0226 248.985 38.8509 250.08 38.8509C251.063 38.8509 252.199 38.9989 253.49 39.3068C254.78 39.6148 255.864 39.9464 256.746 40.3076V33.2965C255.905 32.7873 254.792 32.3669 253.407 32.0175C252.016 31.674 250.577 31.5023 249.092 31.5023C248.932 31.5023 248.778 31.5023 248.624 31.5023C248.6 31.5023 248.571 31.5023 248.547 31.5023C248.417 31.5023 248.287 31.5142 248.156 31.5201C248.145 31.5201 248.127 31.5201 248.109 31.5201C247.967 31.526 247.831 31.5378 247.695 31.5497C247.695 31.5497 247.695 31.5497 247.689 31.5497C246.931 31.6089 246.197 31.7214 245.493 31.8813C244.433 32.1182 243.439 32.4734 242.497 32.9353C240.562 33.8946 239.04 35.2269 237.957 36.9205H237.945Z" fill="#FFB000"/>
<path d="M63.7232 85.5182C62.1131 83.2918 60.3017 81.2488 58.1944 79.4783C58.005 79.3184 57.9339 79.1704 57.999 78.9098C58.224 77.9861 58.4016 77.0446 58.6206 76.1208C58.662 75.9373 58.7745 75.7359 58.9166 75.6175C59.7453 74.9484 60.6036 74.3148 61.4323 73.6456C61.6632 73.4621 61.823 73.4325 62.1072 73.5509C63.4864 74.149 64.694 73.8766 65.7654 72.8107C66.2981 72.2837 66.458 71.6146 66.6474 70.9454V70.371C66.458 69.9032 66.3692 69.3585 66.0614 68.9913C65.7003 68.5532 65.7476 68.2038 65.9015 67.7419C66.4994 65.9358 65.1675 64.1653 63.664 63.8989C63.0306 63.7864 62.3558 63.8811 61.681 63.8811C60.9292 62.0513 59.8282 61.2105 58.3246 61.3645C56.5902 61.5421 55.7319 62.4895 55.3471 64.5502C54.7078 64.8108 54.0981 64.9943 53.5594 65.2963C52.5886 65.8411 51.8132 67.2267 52.2927 68.8374C52.6537 70.0394 53.8791 71.0698 55.1814 71.0165C55.9095 70.9869 56.2706 71.2356 56.4659 71.8692C56.4777 71.8988 56.4896 71.9284 56.5133 71.9521C57.2295 72.9173 57.2769 73.9121 56.7974 75.0194C56.4245 75.884 56.2114 76.8136 55.9213 77.7433C55.6608 77.5834 55.4596 77.4591 55.2583 77.3288C55.0452 77.1926 54.8321 77.0505 54.6131 76.9143C51.7422 75.1971 48.6581 74.0424 45.3846 73.3673C45.065 73.3022 44.917 73.1542 44.8519 72.8581C44.4967 71.2474 44.0823 69.6486 43.7864 68.0261C43.1589 64.6213 42.5788 61.2105 41.9928 57.7997C41.8685 57.0654 41.7797 56.3253 41.679 55.591C41.7205 55.5732 41.7619 55.5614 41.7974 55.5436C41.9336 55.6739 42.0697 55.7923 42.2059 55.9285C44.5737 58.2912 46.9415 60.6539 49.3092 63.0166C50.0433 63.7508 50.5642 63.7627 51.31 63.0402C51.6889 62.6731 52.0322 62.2823 52.4051 61.9092C53.1391 61.1631 53.8968 60.4348 54.6131 59.6709C55.0275 59.2209 54.9979 58.5577 54.6013 58.1609C53.1036 56.6865 51.5882 55.2298 50.1025 53.7435C47.9063 51.5466 45.728 49.3379 43.5437 47.1292C43.3187 46.9042 43.1116 46.6614 42.857 46.466C42.3479 46.0752 42.0165 46.0929 41.5488 46.5311C41.2114 46.8449 40.8977 47.1884 40.6076 47.5437C40.4004 47.7924 40.2406 47.7924 40.0275 47.5674C39.6605 47.1706 39.2698 46.7917 38.9146 46.3831C38.8022 46.2528 38.7548 46.0515 38.7134 45.8738C38.5891 45.3054 38.4825 44.731 38.376 44.1566C38.3523 44.0145 38.3227 43.8131 38.3937 43.7243C38.6305 43.4401 38.9146 43.1914 39.1869 42.9249C40.3412 44.4527 40.8326 44.4823 42.1644 43.1559C42.1881 43.1322 42.2118 43.1085 42.2295 43.0907C43.7331 41.5985 45.2366 40.1063 46.7461 38.6259C49.0074 36.4113 51.2864 34.2085 53.5476 31.9879C54.1336 31.4135 54.1691 30.8391 53.6186 30.2648C52.5472 29.1515 51.4521 28.062 50.3333 26.9902C49.771 26.4513 49.1672 26.4632 48.5812 26.9902C47.9892 27.5172 47.4328 28.0856 46.8763 28.6482C43.9107 31.6504 40.945 34.6526 37.9853 37.6548C37.0796 38.5726 36.6179 39.1884 37.7012 40.4734C38.2398 41.1189 38.157 41.4978 37.565 42.0722C37.4407 42.1966 37.2986 42.3032 37.1802 42.4334C36.9908 42.6407 36.7955 42.6999 36.4995 42.6229C35.7655 42.4216 34.996 42.3505 34.3034 42.7058C33.7529 42.9841 33.4154 42.8242 33.084 42.4097C32.9774 42.2795 32.859 42.1492 32.7584 42.0308C32.7821 41.9775 32.788 41.936 32.8117 41.9242C34.2323 40.8583 34.2679 40.3609 33.0129 39.0996C32.9892 39.0759 32.9656 39.0523 32.9478 39.0345C30.8109 36.8731 28.668 34.7118 26.5311 32.5505C24.9565 30.9516 23.3938 29.341 21.8192 27.7422C21.1799 27.0968 20.6116 27.0553 19.9901 27.6534C18.9009 28.7074 17.8295 29.7733 16.7758 30.8628C16.2016 31.455 16.2016 32.0294 16.7521 32.6393C17.2849 33.2255 17.8531 33.7821 18.4155 34.3387C21.4108 37.2877 24.4119 40.2306 27.4131 43.1736C28.6266 44.3638 28.8693 44.3638 30.3077 43.4638C30.6096 43.2743 31.1009 43.0907 31.3614 43.2091C31.7698 43.3927 32.0895 43.8191 32.3677 44.1921C32.4743 44.3401 32.4151 44.6421 32.3795 44.8612C32.3263 45.1988 32.3085 45.5837 32.125 45.8442C31.8113 46.2765 31.3732 46.6199 30.9944 47.0107C30.8109 47.2002 30.6629 47.2121 30.4676 47.0285C30.142 46.7265 29.8282 46.4068 29.4731 46.1403C29.0232 45.8028 28.5082 45.8087 28.0524 46.1403C27.8215 46.3061 27.6203 46.5133 27.419 46.7206C26.3654 47.8042 25.3294 48.9056 24.2699 49.9833C21.7008 52.5947 19.1199 55.1943 16.5568 57.7997C15.7399 58.6287 15.7517 59.1676 16.5745 59.9966C17.569 61.0032 18.5753 61.9981 19.5639 63.0106C20.286 63.7567 20.9254 63.7804 21.6534 63.0402C22.6598 62.0217 23.6483 60.9855 24.6546 59.9611C26.0635 58.5281 27.4723 57.1069 28.887 55.6857C29.0528 55.5199 29.2777 55.4074 29.5855 55.1943C29.4672 56.1535 29.3843 56.9529 29.26 57.7523C28.8752 60.2157 28.5082 62.6849 28.0583 65.1364C27.5552 67.8544 26.9632 70.5546 26.4186 73.2667C26.3417 73.6516 26.1523 73.841 25.7497 73.9536C21.0437 75.2326 16.687 77.2341 12.8808 80.331C12.5552 80.5975 12.2178 80.8462 11.839 81.1482C11.6969 80.5797 11.5371 80.0941 11.4601 79.5967C11.4187 79.3066 11.4424 78.9572 11.5607 78.6967C12.0698 77.5894 12.6381 76.5057 13.159 75.3984C13.2892 75.126 13.4313 75.0253 13.7332 75.0313C15.438 75.055 16.9415 73.8351 17.35 72.1238C17.7288 70.5487 16.9001 68.7841 15.3966 68.0557C15.0236 67.8781 14.8875 67.6708 14.8638 67.2741C14.7217 65.1661 12.5907 63.6028 10.5189 64.0291C9.70794 64.1949 9.0568 64.6094 8.47669 65.1364C8.4175 65.1128 8.37606 65.1068 8.3583 65.0891C8.26951 65.0003 8.18664 64.8996 8.09785 64.8108C7.34607 64.0232 6.41672 63.585 5.33345 63.6146C2.71112 63.6857 0.899762 66.3385 2.02446 68.8019C2.14877 69.0802 2.10734 69.2104 1.84688 69.3703C0.0591963 70.4717 -0.520912 72.6923 0.514996 74.3858C1.6397 76.2215 3.8595 76.7544 5.70638 75.6234C5.96684 75.4635 6.1385 75.4754 6.36936 75.6589C6.9909 76.1564 7.65389 76.6064 8.25767 77.1216C8.47669 77.3051 8.67204 77.613 8.71939 77.8913C9.00353 79.5967 9.24623 81.3081 9.47709 83.0253C9.50668 83.2266 9.41789 83.4931 9.28766 83.6589C8.71939 84.3695 7.95578 84.9616 7.37567 85.6604C7.04418 86.0512 2.98342 90.0896 2.45066 90.7765C2.68152 91.2562 22.7959 82.7174 35.4754 84.7781C37.1921 85.1985 34.3685 87.6026 32.4979 89.3613C38.8732 87.3006 42.9991 86.9157 50.0196 86.2703C51.3159 86.1578 55.3234 85.9268 56.5488 86.7262C57.3893 87.6026 54.0685 89.9357 54.0685 89.9357C64.984 90.7765 67.6182 90.889 67.6182 90.7765C67.5116 90.439 63.9422 85.8202 63.735 85.5301L63.7232 85.5182ZM59.4197 72.639C59.473 72.3784 59.6269 72.337 59.8637 72.2541C60.7634 71.9402 60.9529 72.7278 61.456 73.1838C60.6332 73.6812 59.8578 74.149 58.9639 74.6878C59.1356 73.9121 59.2895 73.2785 59.4197 72.639ZM6.42855 75.0786C6.5647 74.8892 6.70085 74.7056 6.82516 74.5339C7.15665 74.6819 7.47038 74.8536 7.80187 74.9543C8.2044 75.0846 8.40566 75.3096 8.3583 75.7418C8.34646 75.878 8.37014 76.0202 8.38198 76.2333C7.70124 75.8307 7.0797 75.4576 6.42855 75.0727V75.0786ZM10.3946 75.0076C10.7261 74.7944 11.0102 74.6049 11.3062 74.4332C11.395 74.3799 11.543 74.3503 11.6259 74.3858C12.0284 74.5635 12.4131 74.7766 12.863 75.0017C12.277 75.9017 11.6969 76.784 11.0517 77.7729C10.8149 76.7781 10.6018 75.8721 10.3946 75.0076ZM37.4466 72.5087H33.7173C33.7173 71.2474 33.6581 69.9684 33.7351 68.6953C33.7884 67.8603 34.7473 67.132 35.582 67.1261C36.4107 67.1261 37.3519 67.884 37.417 68.79C37.5058 69.998 37.4407 71.2178 37.4407 72.5028L37.4466 72.5087ZM57.4959 72.5087C57.117 71.9225 56.7796 71.4014 56.4363 70.8685C56.7619 70.6375 56.9868 70.4658 57.2118 70.9158C57.342 71.1823 57.6084 71.3777 57.8274 71.6264C57.7327 71.881 57.6261 72.1653 57.5018 72.5087H57.4959Z" fill="#FFB000"/>
<path d="M34.2146 23.1175C37.4881 18.3922 40.7675 13.6609 44.1238 8.81711H38.7193C38.8377 5.87413 38.9561 2.99036 39.0686 0.106587C38.9502 0.071058 38.8318 0.035529 38.7075 0C35.5702 4.38783 32.4328 8.77566 29.183 13.3115H34.3152C34.1968 16.6098 34.0785 19.8429 33.966 23.082" fill="#FFB000"/>
<path d="M21.47 25.2433C23.3879 21.8266 25.1223 18.7415 26.9632 15.4669C25.7083 15.615 24.6961 15.7393 23.5832 15.8696C23.4767 14.028 23.3701 12.2812 23.2636 10.5343C23.157 10.5165 23.0505 10.4929 22.9439 10.4751C21.2865 13.3352 19.6349 16.1953 17.8828 19.2211C19.0962 19.085 20.0374 18.9843 21.0733 18.8718C21.2036 20.9621 21.3279 22.9339 21.47 25.2433Z" fill="#FFB000"/>
<path d="M46.5093 24.5742C48.7114 21.8681 50.9134 19.156 53.299 16.2249C52.0203 16.0117 51.1028 15.8637 50.1498 15.7038C50.2919 14.7445 50.4221 13.9096 50.5405 13.0747C50.6648 12.2042 50.7773 11.3337 50.8956 10.4633C50.8069 10.4159 50.7121 10.3685 50.6233 10.3212C48.4923 12.7135 46.3554 15.1117 44.0409 17.7112C45.3669 17.8888 46.3021 18.0191 47.338 18.1553C46.971 20.2989 46.6218 22.3773 46.2666 24.4617" fill="#FFB000"/>
<path d="M267.401 36.0263L266.714 38.1048H265.82L268.087 31.4905H269.123L271.402 38.1048H270.479L269.762 36.0263H267.401ZM269.591 35.3572L268.934 33.4564C268.792 33.0241 268.691 32.6274 268.59 32.2484H268.567C268.472 32.6333 268.365 33.036 268.235 33.4446L267.578 35.3572H269.591Z" fill="#FFB000"/>
<path d="M266.684 41.3971C267.122 41.3083 267.75 41.255 268.342 41.255C269.253 41.255 269.857 41.4267 270.271 41.7998C270.603 42.0899 270.792 42.54 270.792 43.0551C270.792 43.9256 270.236 44.5 269.537 44.7428V44.7665C270.047 44.9441 270.354 45.4178 270.514 46.1047C270.733 47.0285 270.893 47.6621 271.029 47.9167H270.135C270.029 47.7272 269.881 47.1587 269.697 46.3357C269.502 45.4297 269.141 45.0803 268.36 45.0507H267.543V47.9167H266.684V41.3971ZM267.543 44.4052H268.425C269.348 44.4052 269.928 43.9078 269.928 43.1499C269.928 42.2913 269.301 41.9182 268.395 41.9182C267.975 41.9182 267.691 41.9537 267.543 41.9952V44.4112V44.4052Z" fill="#FFB000"/>
<path d="M266.092 57.7464V51.1321H267.039L269.176 54.4718C269.662 55.2475 270.052 55.9403 270.366 56.6272L270.39 56.6154C270.313 55.7331 270.295 54.9278 270.295 53.9033V51.1321H271.106V57.7464H270.23L268.111 54.3948C267.649 53.6546 267.205 52.9026 266.868 52.1802L266.838 52.192C266.891 53.027 266.903 53.8264 266.903 54.9218V57.7523H266.092V57.7464Z" fill="#FFB000"/>
<path d="M270.36 74.2615H267.773V76.6479H270.662V77.3585H266.903V70.7441H270.508V71.4547H267.768V73.5509H270.354V74.2556L270.36 74.2615Z" fill="#FFB000"/>
<path d="M270.994 84.2688C270.94 83.351 270.881 82.2318 270.887 81.4147H270.858C270.627 82.1844 270.354 83.0135 270.017 83.9194L268.839 87.1289H268.188L267.105 83.9787C266.785 83.0431 266.53 82.1963 266.341 81.4147H266.317C266.294 82.2377 266.252 83.3391 266.187 84.3339L266.009 87.1703H265.193L265.654 80.556H266.755L267.892 83.7596C268.164 84.5708 268.389 85.2992 268.561 85.9861H268.584C268.762 85.3169 268.993 84.5886 269.289 83.7596L270.479 80.556H271.58L271.994 87.1703H271.148L270.988 84.2688H270.994Z" fill="#FFB000"/>
<path d="M266.957 60.8671V63.6383H270.177V60.8671H271.041V67.4814H270.177V64.3785H266.957V67.4814H266.092V60.8671H266.957Z" fill="#FFB000"/>
</g>
<defs>
<clipPath id="clip0_7646_22">
<rect width="272" height="90.8062" fill="white"/>
</clipPath>
</defs>
</svg>
