<svg width="272" height="161" viewBox="0 0 272 161" fill="none" xmlns="http://www.w3.org/2000/svg">
<g clip-path="url(#clip0_7646_50)">
<path d="M204.462 82.776C201.579 82.4794 199.094 82.2465 196.603 81.9762C192.66 81.5837 188.716 81.1989 184.769 80.8207C183.37 80.6886 181.966 80.5877 180.562 80.5082C176.92 80.3032 173.279 80.1053 169.64 79.9145C163.567 79.6125 157.489 79.3373 151.416 79.0194C149.673 78.9289 147.929 78.7436 146 78.5847C146.742 77.9433 147.447 77.3551 148.12 76.7302C148.618 76.295 149.074 75.8142 149.482 75.294C149.611 75.1498 149.703 74.9755 149.748 74.7869C149.794 74.5984 149.792 74.4016 149.742 74.2141C149.693 74.0266 149.598 73.854 149.465 73.7125C149.333 73.5705 149.168 73.4642 148.983 73.4023C147.95 72.9254 146.838 72.3426 145.751 72.3426C141.231 72.221 136.705 72.2577 132.18 72.295C130.336 72.295 128.47 72.4007 126.647 72.597C122.572 73.0311 118.476 73.365 114.459 74.0699C107.374 75.3099 100.331 76.7883 93.2619 78.1768C92.7866 78.315 92.2849 78.3369 91.7992 78.2404C92.3295 77.7476 92.8592 77.2439 93.3889 76.7565C94.0713 76.216 94.7192 75.6339 95.3286 75.0133C96.3886 73.7783 96.0918 72.597 94.5868 71.977C93.9928 71.6744 93.3438 71.4941 92.6789 71.4469C88.6462 71.5796 84.6085 71.7013 80.5807 72.0088C77.1205 72.2736 73.6598 72.6655 70.2315 73.217C66.1086 73.8737 62.0122 74.6795 57.9267 75.5538C51.3236 76.9665 44.7295 78.4383 38.1443 79.9677C34.3712 80.842 30.6352 81.8753 26.8781 82.8292C26.7562 82.861 26.6078 82.7919 26.1733 82.7124C44.0212 73.4763 51.5514 57.9509 53.899 39.076H60.0461C60.8939 41.6353 61.7418 44.2053 62.6111 46.77C62.6639 46.929 62.8815 47.0402 63.3211 47.4483C64.0046 45.3022 64.7041 43.3416 65.2498 41.3439C65.796 39.3462 65.7322 39.2932 67.8995 39.2932C72.0223 39.2932 76.1402 39.2932 80.2631 39.2932C94.4703 39.3833 108.672 39.5264 122.88 39.5635C128.709 39.5635 134.538 39.4098 140.336 39.272C141.729 39.2402 143.123 39.023 144.315 38.9064C145.772 43.9669 147.012 48.879 148.613 53.6692C150.213 58.4597 152.359 63.101 156.302 66.5561C158.406 68.4874 161.084 69.6769 163.928 69.9422C168.983 70.4087 173.095 68.4901 176.815 65.3639C178.84 63.6574 180.827 61.9087 182.698 60.2982C186.704 70.1384 194.754 77.0268 204.462 82.776Z" fill="#FAB44B"/>
<path d="M219.734 123.589V159.092C215.41 159.092 211.154 159.092 206.899 159.055C206.555 159.055 206.099 158.61 205.887 158.255C203.291 153.936 200.737 149.591 198.166 145.257C198.036 145.093 197.895 144.939 197.742 144.796V159.023H184.001V123.478H192.189C193.566 123.478 194.939 123.525 196.311 123.478C196.693 123.445 197.075 123.533 197.403 123.731C197.731 123.927 197.989 124.223 198.14 124.575C200.641 128.867 203.216 133.117 205.956 137.695V123.589H219.734Z" fill="#FAB44B"/>
<path d="M142.688 159.691C138.078 159.744 133.795 158.631 130.086 155.834C126.26 152.935 123.727 149.199 122.948 144.335C121.952 137.929 123.775 132.492 128.512 128.094C131.56 125.275 135.221 123.749 139.344 123.144C145.173 122.291 150.473 123.516 155.199 126.986C157.067 128.291 158.647 129.964 159.844 131.902C161.041 133.84 161.828 136.003 162.157 138.257C162.752 141.65 162.368 145.143 161.05 148.325C160.129 150.58 158.748 152.618 156.995 154.31C155.242 156.001 153.156 157.309 150.87 158.149C148.316 159.14 145.507 159.484 142.815 160.12L142.688 159.691ZM147.691 141.532C147.727 138.321 145.396 136.439 142.576 136.169C139.927 135.92 137.41 138.771 137.373 141.638C137.378 143.019 137.929 144.343 138.906 145.32C139.882 146.298 141.205 146.85 142.587 146.857C145.422 146.847 147.961 144.361 147.691 141.548V141.532Z" fill="#FAB44B"/>
<path d="M27.556 139.809C30.3964 140.969 32.5904 142.808 33.0885 145.749C33.9628 150.931 33.0037 155.441 26.6075 157.544C23.764 158.431 20.814 158.93 17.8372 159.028C12.7446 159.261 7.63614 159.092 2.53293 159.092H0.868958V123.589C1.2876 123.557 1.70624 123.504 2.12488 123.504C7.32348 123.504 12.5326 123.319 17.7206 123.563C21.6314 123.742 25.5052 124.278 29.1034 126.254C33.5654 128.702 33.4859 137.223 28.494 139.232C28.1687 139.403 27.8553 139.596 27.556 139.809ZM15.2405 144.779V149.888C18.4201 150.116 20.0099 149.167 19.9516 147.265C19.8933 145.362 18.2082 144.488 15.2193 144.779H15.2405ZM15.2988 137.891C16.8886 137.992 18.3724 137.949 19.0083 136.407C19.1482 136.046 19.2088 135.659 19.1859 135.272C19.1631 134.885 19.0573 134.508 18.8758 134.165C18.0439 133 16.6554 132.947 15.283 132.957L15.2988 137.891Z" fill="#FAB44B"/>
<path d="M120.606 138.633C117.331 136.651 113.982 136.227 110.506 136.429C109.175 136.528 107.916 137.067 106.926 137.96C105.934 138.853 105.268 140.05 105.032 141.362C104.772 143.307 106.987 145.893 109.403 146.438C113.039 147.254 116.483 146.587 119.811 145.055C120.023 144.955 120.261 144.901 120.606 144.785C120.606 148.987 120.606 153.088 120.569 157.195C120.52 157.408 120.422 157.606 120.282 157.774C120.142 157.942 119.964 158.074 119.764 158.16C113.266 160.279 106.754 160.57 100.442 157.629C95.0582 155.107 91.4651 150.836 90.3738 144.986C88.6198 135.655 93.5531 126.97 103.309 124.019C108.555 122.429 113.68 122.699 118.841 124.114C119.944 124.416 120.712 124.946 120.659 126.446C120.516 130.398 120.606 134.373 120.606 138.633Z" fill="#FAB44B"/>
<path d="M63.8453 135.813H54.1583V123.594H88.4126V135.845H78.8739V159.006H63.8453V135.813Z" fill="#FAB44B"/>
<path d="M163.684 89.9247C166.985 89.9247 170.17 89.8875 173.35 89.967C173.612 90.0196 173.861 90.1265 174.079 90.2822C174.298 90.4373 174.481 90.6368 174.616 90.8682C176.37 93.7296 178.05 96.6388 179.756 99.5315C179.862 99.7173 179.984 99.8971 180.318 100.422V90.0305H190.869V117.585C187.689 117.585 184.584 117.628 181.468 117.537C181.055 117.537 180.551 116.912 180.276 116.478C178.294 113.219 176.359 109.934 174.208 106.319V117.49H163.684V89.9247Z" fill="#FAB44B"/>
<path d="M76.8392 89.5958C82.8858 89.6802 87.7291 92.0226 90.6172 97.5016C91.7915 99.7052 92.3234 102.194 92.1531 104.685C91.9827 107.176 91.1162 109.568 89.6529 111.591C84.8201 118.597 74.8149 119.778 67.8995 115.481C66.1521 114.397 64.6701 112.936 63.5612 111.205C62.4523 109.474 61.7446 107.516 61.4907 105.476C61.2363 103.436 61.4424 101.365 62.093 99.4152C62.743 97.4648 63.8217 95.6849 65.2498 94.2054C66.7422 92.6568 68.5479 91.4443 70.5464 90.6494C72.5455 89.8546 74.6907 89.495 76.8392 89.5958ZM80.5857 103.829C80.6038 103.309 80.5142 102.793 80.323 102.31C80.1323 101.827 79.8438 101.389 79.4757 101.024C79.1075 100.657 78.6679 100.371 78.1844 100.183C77.7003 99.9941 77.1832 99.908 76.6645 99.9283C74.6028 99.9283 72.6422 101.889 72.6422 103.903C72.6422 105.917 74.6506 107.893 76.8128 107.877C78.9745 107.861 80.5857 106.171 80.5752 103.829H80.5857Z" fill="#FAB44B"/>
<path d="M32.9506 117.299V90.2C37.4921 90.2 41.9594 90.2 46.4479 90.2C49.2068 90.2361 51.894 91.0841 54.1742 92.6377C57.4436 94.7942 59.5317 97.7137 60.0032 101.821C60.5758 106.521 59.2828 110.384 55.8594 113.553C53.5379 115.709 50.5426 116.997 47.3805 117.198C42.6642 117.527 37.8684 117.299 32.9506 117.299ZM44.4129 108.185C46.3737 108.243 47.8734 107.655 48.7954 106.017C49.2474 105.324 49.4705 104.506 49.4334 103.679C49.3964 102.852 49.1009 102.057 48.5888 101.407C48.1364 100.747 47.4982 100.235 46.7549 99.9366C46.0116 99.6389 45.1966 99.5677 44.4129 99.7327V108.185Z" fill="#FAB44B"/>
<path d="M210.429 107.861H208.134V101.783H219.792C219.792 106.187 219.792 110.537 219.761 114.888C219.724 115.06 219.65 115.222 219.544 115.362C219.437 115.502 219.302 115.617 219.146 115.699C215.007 117.818 210.635 118.242 206.067 117.659C202.548 117.209 199.48 115.942 196.963 113.42C194.81 111.169 193.478 108.257 193.183 105.155C192.887 102.054 193.646 98.9427 195.336 96.3257C196.384 94.696 197.758 93.3009 199.371 92.2287C200.984 91.1565 202.803 90.4296 204.71 90.0941C209.48 89.1507 214.127 89.2779 218.584 91.3922C218.798 91.4942 218.988 91.6422 219.139 91.8253C219.29 92.0083 219.399 92.2221 219.458 92.4524C219.527 95.2924 219.496 98.1325 219.496 100.994C217.476 100.464 215.568 99.8072 213.608 99.4942C211.488 99.1499 209.258 98.9646 207.196 100.024C206.175 100.522 205.365 101.368 204.912 102.41C204.459 103.453 204.393 104.622 204.726 105.708C205.059 106.794 205.769 107.726 206.728 108.336C207.687 108.945 208.832 109.192 209.957 109.032C210.27 108.99 210.519 108.54 210.799 108.275C210.683 108.132 210.555 107.994 210.429 107.861Z" fill="#FAB44B"/>
<path d="M0 117.591C0.529926 116.091 0.932669 114.83 1.399 113.585C4.22528 106 7.07096 98.4263 9.93613 90.8632C10.042 90.6335 10.201 90.4329 10.4001 90.2772C10.5992 90.1209 10.8325 90.0151 11.0807 89.9675C14.5571 89.8935 18.0387 89.9252 21.5574 89.9252C24.9595 99.1137 28.3458 108.259 31.7956 117.585C27.8105 117.585 24.0057 117.585 20.1955 117.554C19.9093 117.554 19.4907 117.109 19.3741 116.786C19.072 115.932 18.9025 115.037 18.6693 114.136H12.3791C12.1901 114.998 11.9494 115.847 11.6584 116.679C11.4994 117.056 11.0013 117.543 10.6462 117.549C7.21762 117.617 3.79427 117.591 0 117.591ZM14.2179 107.178H16.9576C16.5178 105.446 16.1098 103.835 15.6275 101.948L14.2179 107.178Z" fill="#FAB44B"/>
<path d="M165.135 123.552H179.973V158.997H165.135V123.552Z" fill="#FAB44B"/>
<path d="M105.567 110.941V117.511H94.2318V89.9889C94.6505 89.9889 95.122 89.9198 95.5935 89.9307C99.8861 90.0206 104.178 90.0946 108.471 90.2273C113.007 90.3649 117.66 93.6188 118.449 97.4495C119.684 103.438 117.437 108.577 110.469 110.204C108.926 110.564 107.337 110.686 105.567 110.941ZM105.657 98.5414V102.78C106.759 103.067 107.719 102.754 108.137 101.811C108.418 101.084 108.418 100.28 108.137 99.5533C107.745 98.5836 106.775 98.292 105.657 98.5464V98.5414Z" fill="#FAB44B"/>
<path d="M36.1941 158.99V123.556H50.73V158.99H36.1941Z" fill="#FAB44B"/>
<path d="M146.71 99.6384H139.227V117.485H127.712V99.6861H120.134V90.0256H146.71V99.6384Z" fill="#FAB44B"/>
<path d="M160.567 90.0305V117.505H149.28V90.0305H160.567Z" fill="#FAB44B"/>
<path d="M109.165 0.192871C108.969 4.27304 108.768 8.32143 108.561 12.5393L115.98 12.1843L116.181 12.6082L101.926 33.1309V18.8239H95.3868C95.5511 17.2448 107.782 0.457817 109.165 0.192871Z" fill="#FAB44B"/>
<path d="M87.4384 22.2207L92.3717 21.5636L84.5074 35.4733L84.1634 35.4415C84.004 32.5324 83.8452 29.6127 83.6809 26.6347L79.4416 27.2335C79.8389 25.1139 85.9383 14.9453 86.9719 14.6273C87.1043 17.1496 87.2631 19.6401 87.4384 22.2207Z" fill="#FAB44B"/>
<path d="M116.26 25.1612C120.469 20.1008 120.553 20.1856 125.667 14.3356C125.317 16.985 124.983 19.5338 124.65 22.0561C125.857 22.2309 126.859 22.3422 127.829 22.5383C128.587 22.692 128.777 23.1689 128.274 23.7994C126.186 26.3959 124.083 28.9818 121.989 31.5729C121.321 32.3943 120.675 33.2368 119.986 34.0422C119.738 34.2863 119.467 34.5047 119.175 34.694L118.815 34.5138L120.336 25.6276L116.26 25.1612Z" fill="#FAB44B"/>
<path d="M238.161 159.633C236.943 159.633 235.851 159.353 234.884 158.794C233.918 158.222 233.166 157.454 232.629 156.49C232.08 155.513 231.806 154.448 231.806 153.293C231.806 151.971 232.134 150.799 232.79 149.775C233.434 148.739 234.354 147.989 235.547 147.524V149.971C234.89 150.292 234.401 150.739 234.079 151.311C233.757 151.882 233.596 152.543 233.596 153.293C233.596 154.115 233.78 154.846 234.151 155.489C234.521 156.132 235.052 156.638 235.744 157.008C236.436 157.365 237.242 157.543 238.161 157.543C239.08 157.543 239.885 157.365 240.578 157.008C241.27 156.638 241.807 156.132 242.189 155.489C242.559 154.846 242.744 154.115 242.744 153.293C242.744 152.543 242.583 151.882 242.261 151.311C241.938 150.739 241.449 150.292 240.793 149.971V147.524C241.986 147.989 242.905 148.739 243.549 149.775C244.194 150.799 244.516 151.971 244.516 153.293C244.516 154.46 244.248 155.526 243.711 156.49C243.161 157.454 242.404 158.222 241.437 158.794C240.471 159.353 239.378 159.633 238.161 159.633ZM241.867 129.977V135.175L244.409 136.068V138.193L231.948 133.746V131.388L244.409 126.942V129.084L241.867 129.977ZM240.202 130.549L234.419 132.567L240.202 134.603V130.549ZM235.672 108.648C236.305 108.648 236.902 108.797 237.463 109.094C238.024 109.392 238.483 109.868 238.841 110.523C239.187 111.178 239.361 112.017 239.361 113.041V115.292H244.409V117.328H231.967V113.041C231.967 112.089 232.134 111.285 232.468 110.63C232.79 109.964 233.231 109.469 233.793 109.148C234.354 108.815 234.98 108.648 235.672 108.648ZM237.696 113.041C237.696 112.268 237.522 111.69 237.176 111.309C236.818 110.928 236.317 110.738 235.672 110.738C234.312 110.738 233.632 111.506 233.632 113.041V115.292H237.696V113.041ZM233.613 96.9901H237.266V92.7034H238.931V96.9901H242.744V92.1678H244.409V99.026H231.948V92.1678H233.613V96.9901Z" fill="white"/>
<path d="M253.45 150.935H255.115V154.239H265.892V156.275H255.115V159.597H253.45V150.935ZM266.017 138.21C266.017 139.365 265.748 140.431 265.212 141.407C264.663 142.372 263.904 143.14 262.938 143.711C261.959 144.271 260.861 144.551 259.643 144.551C258.426 144.551 257.334 144.271 256.367 143.711C255.401 143.14 254.649 142.372 254.112 141.407C253.563 140.431 253.288 139.365 253.288 138.21C253.288 137.044 253.563 135.978 254.112 135.013C254.649 134.037 255.401 133.269 256.367 132.71C257.334 132.15 258.426 131.87 259.643 131.87C260.861 131.87 261.959 132.15 262.938 132.71C263.904 133.269 264.663 134.037 265.212 135.013C265.748 135.978 266.017 137.044 266.017 138.21ZM264.245 138.21C264.245 137.389 264.06 136.657 263.69 136.014C263.308 135.371 262.771 134.871 262.078 134.513C261.374 134.145 260.563 133.96 259.643 133.96C258.725 133.96 257.919 134.145 257.227 134.513C256.534 134.871 256.004 135.371 255.633 136.014C255.263 136.657 255.078 137.389 255.078 138.21C255.078 139.032 255.263 139.764 255.633 140.407C256.004 141.05 256.534 141.556 257.227 141.925C257.919 142.283 258.725 142.461 259.643 142.461C260.563 142.461 261.374 142.283 262.078 141.925C262.771 141.556 263.308 141.05 263.69 140.407C264.06 139.764 264.245 139.032 264.245 138.21ZM253.45 108.703L265.892 112.382V114.686L256.475 117.293L265.892 120.062L265.909 122.347L253.45 125.866V123.705L263.582 121.133L253.45 118.347V116.061L263.528 113.471L253.45 110.882V108.703ZM265.892 91.8241V93.8606L256.6 99.9864H265.892V102.022H253.431V99.9864L262.705 93.8606H253.431V91.8241H265.892Z" fill="white"/>
</g>
<defs>
<clipPath id="clip0_7646_50">
<rect width="272" height="160.614" fill="white" transform="translate(0 0.192871)"/>
</clipPath>
</defs>
</svg>
