<svg width="283" height="82" viewBox="0 0 283 82" fill="none" xmlns="http://www.w3.org/2000/svg">
<path fill-rule="evenodd" clip-rule="evenodd" d="M42.1562 14.678C42.1433 14.5866 42.2564 14.3846 42.4073 14.1602C42.5173 13.9966 42.6472 13.8205 42.7613 13.6657L42.7614 13.6657L42.7618 13.6651C42.8082 13.6023 42.8519 13.543 42.8906 13.4895L43.4191 12.7562C43.6375 12.4532 44.4196 11.3737 44.8853 10.731L45.2355 10.2475C45.3077 10.1483 45.379 10.0493 45.4503 9.9502L45.451 9.94929L45.4528 9.94669C45.4978 9.88418 45.5428 9.82167 45.5881 9.7591C45.6983 9.61078 45.8112 9.45662 45.9285 9.29646L45.929 9.29575L46.0516 9.12844C46.0516 9.12844 49.419 4.49707 51.2074 2.11087C51.2749 2.0233 51.3438 1.93237 51.4061 1.84732L52.0438 0.999859C52.0814 0.951442 52.12 0.901552 52.1588 0.851186L52.159 0.850981C52.2107 0.784047 52.263 0.716276 52.3147 0.650013C52.3487 0.606227 52.3827 0.563287 52.4166 0.521187L52.4208 0.516053C52.4257 0.509894 52.4306 0.503882 52.436 0.497611L52.4529 0.476767L52.4531 0.476499L52.4533 0.476303C52.474 0.450636 52.4946 0.425192 52.5155 0.400782C52.5223 0.392548 52.5291 0.384708 52.536 0.376895C52.5414 0.370727 52.5468 0.364576 52.5521 0.358262C52.5723 0.334686 52.5925 0.31111 52.6119 0.289219C52.6192 0.280903 52.6265 0.273347 52.6337 0.265857C52.6397 0.259696 52.6456 0.253579 52.6514 0.247119L52.6689 0.228521L52.669 0.228485C52.6807 0.215959 52.6924 0.203495 52.7039 0.191968C52.7136 0.181863 52.7233 0.172872 52.733 0.16386L52.7439 0.153657L52.7571 0.140959L52.7571 0.140934C52.7681 0.130278 52.779 0.119745 52.7894 0.110716C52.7974 0.103662 52.8053 0.0977433 52.813 0.091953C52.8177 0.0884125 52.8223 0.0849203 52.8269 0.0812462L52.8416 0.0699353L52.8416 0.0699131L52.8416 0.0699079C52.851 0.0626056 52.8602 0.0554987 52.869 0.0496717C52.8772 0.0443045 52.885 0.0402045 52.8927 0.036175L52.9021 0.031148C52.9146 0.0239911 52.9279 0.0168341 52.9395 0.0122032C52.9477 0.00886327 52.9553 0.00764317 52.9629 0.00644068L52.9687 0.00546735L52.9734 0.00442459L52.9734 0.00442204C52.9853 0.00171798 52.9976 -0.00107409 53.0079 0.000415355C53.0272 0.00252033 53.0432 0.01515 53.0582 0.0315688C53.1463 0.141028 53.1352 0.516135 53.1218 0.794832L53.1193 0.860091L53.0879 1.58925C53.0528 2.34303 53.0157 3.1313 52.9779 3.93496L52.977 3.95388L52.9765 3.96431L52.9763 3.96765L52.976 3.97581C52.8825 5.95978 52.7848 8.03537 52.7026 9.91527C54.2431 9.81214 55.8616 9.72751 57.4415 9.66102L57.9855 9.63784L58.0463 9.63546C58.1115 9.63281 58.1922 9.62953 58.2755 9.62859C58.2954 9.62859 58.3153 9.62942 58.3351 9.63024L58.3351 9.63025C58.3468 9.63073 58.3584 9.63122 58.37 9.63153L58.3961 9.63211C58.4181 9.63254 58.44 9.63297 58.4607 9.63447C58.4857 9.63643 58.5081 9.64016 58.5307 9.64392L58.5504 9.64714C58.5587 9.64847 58.5672 9.64954 58.5757 9.6506C58.5915 9.65257 58.6071 9.65453 58.6207 9.65808C58.6468 9.6643 58.666 9.67394 58.6854 9.68372L58.6854 9.68373L58.6981 9.69003C58.7019 9.69194 58.7062 9.69358 58.7106 9.69516L58.7147 9.6966C58.7237 9.69975 58.7327 9.70289 58.7389 9.70775C58.7679 9.72962 58.7861 9.75658 58.7888 9.79154C58.7947 9.86518 58.7604 9.95822 58.7083 10.0618C58.5826 10.3071 58.3285 10.6251 58.0659 10.9539L58.0658 10.9539L58.0657 10.9541C57.9479 11.1016 57.8284 11.2511 57.718 11.3972C57.7104 11.4065 57.7028 11.4162 57.6953 11.4258L57.6952 11.426C57.6864 11.4372 57.6776 11.4485 57.6686 11.4591C57.6686 11.4591 57.5274 11.6485 56.7053 12.7718C53.9365 16.5472 50.8178 20.9214 48.4227 24.5091L48.0421 25.0795C48.0198 25.1141 47.9965 25.1495 47.9729 25.1848C47.9668 25.1944 47.9603 25.204 47.9537 25.2136L47.9433 25.229C47.9282 25.2522 47.9131 25.2749 47.8977 25.2972L47.8756 25.3284L47.8667 25.341L47.8567 25.355C47.8515 25.3623 47.8463 25.3697 47.8411 25.377C47.8346 25.386 47.8281 25.395 47.8215 25.4038L47.791 25.4437C47.776 25.4635 47.7609 25.4824 47.7459 25.5006C47.7364 25.5119 47.727 25.5229 47.7179 25.5334C47.7024 25.5511 47.6874 25.5667 47.6724 25.5814L47.6618 25.5916C47.6569 25.5965 47.6522 25.6012 47.6474 25.6054C47.6319 25.6193 47.6169 25.6302 47.6022 25.6399L47.5967 25.644C47.5921 25.6475 47.5875 25.651 47.5829 25.6534C47.564 25.6639 47.5459 25.6698 47.5296 25.6706C47.5292 25.6706 47.5288 25.6707 47.5285 25.6708C47.5281 25.6708 47.5278 25.6709 47.5274 25.671C47.5267 25.6713 47.5259 25.6715 47.5253 25.6715C47.5072 25.6719 47.4904 25.6656 47.4758 25.6517L47.473 25.6486C47.4715 25.6468 47.47 25.6449 47.4688 25.6429C47.4677 25.6411 47.4667 25.6393 47.4659 25.6374C47.3833 25.5246 47.3834 25.1086 47.3928 24.7314L47.3945 24.6863L47.3959 24.6525L47.3959 24.6522L47.3959 24.652C47.3973 24.6163 47.3987 24.5811 47.3997 24.547L47.4328 23.7092C47.4405 23.4976 47.4492 23.2847 47.458 23.0706L47.4581 23.0698C47.4656 22.8863 47.4732 22.702 47.4801 22.5169C47.5281 21.348 47.5798 20.1527 47.6316 18.957L47.6317 18.9545V18.9545C47.6949 17.493 47.7582 16.0309 47.8147 14.6157C47.5141 14.6128 47.1984 14.6136 46.8803 14.6153C46.7869 14.6157 46.6945 14.6161 46.5995 14.617C46.2555 14.6203 45.9063 14.6258 45.5528 14.6346C45.1108 14.6448 44.664 14.662 44.2151 14.6839C44.1712 14.6861 44.128 14.688 44.0851 14.6898C44.0288 14.6923 43.973 14.6947 43.917 14.6978C43.5692 14.7172 43.2256 14.7412 42.8812 14.7694C42.7535 14.7795 42.3217 14.7946 42.2619 14.777C42.2327 14.7664 42.2086 14.7538 42.1914 14.7382C42.1798 14.7294 42.1734 14.7201 42.1678 14.7087L42.1674 14.7079C42.1622 14.6987 42.1579 14.689 42.1562 14.678ZM59.6169 18.6062L59.5818 18.6421L59.5817 18.6423L59.5816 18.6424C59.4383 18.7895 59.2883 18.9436 59.1776 19.0891C59.0648 19.2381 58.9972 19.3753 59.0332 19.4734C59.0783 19.5947 59.2732 19.6608 59.5154 19.7016C60.063 19.7537 60.5987 19.8059 61.0652 19.8513C61.7482 19.9179 62.2829 19.9699 62.4893 19.9862C62.3881 20.9391 61.9824 23.093 61.5733 25.2654C61.4747 25.7891 61.3759 26.3139 61.2811 26.8232C61.2596 26.989 61.266 27.1233 61.3288 27.168C61.3455 27.1797 61.3654 27.1827 61.3868 27.181C61.3896 27.1808 61.3924 27.1803 61.3954 27.1795L61.4027 27.1774L61.4078 27.1759C61.4234 27.1722 61.44 27.1663 61.4577 27.1566L61.4701 27.1496C61.4747 27.147 61.4793 27.1441 61.484 27.141C61.5023 27.1292 61.5211 27.1145 61.541 27.0981L61.555 27.0866L61.5673 27.0766C61.5952 27.051 61.6247 27.0231 61.6548 26.9907C61.7817 26.8588 61.927 26.6774 62.0674 26.502L62.0678 26.5015C62.115 26.4426 62.1616 26.3844 62.2068 26.3289L64.5766 23.4893L68.1826 19.1635C68.1915 19.1523 68.2012 19.1408 68.2111 19.1291L68.2309 19.1056C68.2406 19.0939 68.2499 19.082 68.2583 19.0701L68.3649 18.9423C68.4362 18.8567 68.5051 18.7741 68.5725 18.6942C68.7937 18.418 68.9629 18.1536 68.9145 17.9789C68.8871 17.8711 68.7271 17.8139 68.5419 17.7764L68.4575 17.7645L68.4569 17.7645C67.5912 17.6429 66.6326 17.5083 65.6598 17.395C65.7543 16.5366 65.9949 14.9911 66.2381 13.4426L66.3563 12.5969C66.3656 12.5404 66.3768 12.4794 66.3886 12.4158L66.3888 12.415C66.4014 12.3466 66.4147 12.2751 66.4266 12.2028C66.4653 12.0108 66.4996 11.8134 66.5147 11.653C66.5238 11.5056 66.5206 11.3912 66.4782 11.3432L66.476 11.3405C66.4685 11.3312 66.4625 11.3238 66.4508 11.3196C66.4396 11.3158 66.4249 11.3185 66.4102 11.3213L66.4057 11.3221L66.4032 11.3225C66.395 11.324 66.3876 11.3254 66.3788 11.3288C66.3643 11.3343 66.3487 11.3427 66.3332 11.352C66.3291 11.3544 66.3252 11.3565 66.3213 11.3586L66.3113 11.364C66.3082 11.3658 66.3049 11.3678 66.3015 11.3701C66.2832 11.3823 66.2634 11.3978 66.243 11.4138L66.243 11.4139C66.2381 11.4179 66.2334 11.4215 66.2286 11.4252L66.228 11.4256L66.2232 11.4293L66.2123 11.4379C66.1807 11.4644 66.1479 11.4939 66.1141 11.5263C65.966 11.6684 65.7943 11.8597 65.6429 12.0283L65.6421 12.0292C65.5813 12.0969 65.5237 12.161 65.4724 12.2167L63.8871 13.9496L63.196 14.7065L59.8306 18.3839C59.7672 18.4521 59.6947 18.5279 59.6169 18.6062ZM155.152 37.0262C155.422 36.5657 155.787 36.1981 156.254 35.9278C156.72 35.6563 157.226 35.5191 157.772 35.5191C158.318 35.5191 158.824 35.6563 159.289 35.9278C159.754 36.1986 160.125 36.5669 160.398 37.0313C160.67 37.4961 160.806 38.0017 160.806 38.5461C160.806 39.0887 160.67 39.5918 160.398 40.0574C160.125 40.5235 159.757 40.8881 159.296 41.1558C158.834 41.4239 158.328 41.557 157.772 41.557C157.226 41.557 156.72 41.4239 156.254 41.1558C155.786 40.8876 155.421 40.5252 155.151 40.0646C154.883 39.604 154.749 39.0967 154.749 38.5461C154.75 37.9916 154.884 37.4864 155.152 37.0262ZM152.152 47.158C153.846 48.0437 155.723 48.4866 157.773 48.4866C159.822 48.4866 161.696 48.0433 163.393 47.158C165.091 46.2721 166.431 45.0614 167.417 43.5209C168.401 41.9843 168.894 40.2814 168.894 38.4122C168.894 36.5446 168.404 34.8413 167.424 33.3042C166.444 31.7642 165.101 30.5522 163.401 29.6672C161.698 28.7793 159.823 28.3394 157.773 28.3394C156.355 28.3394 155.022 28.5499 153.773 28.9726C153.635 29.021 153.499 29.0703 153.363 29.1221C153.358 29.1237 153.353 29.1263 153.348 29.1279C153.229 29.1738 153.106 29.2218 152.986 29.2719C152.97 29.2797 152.954 29.2866 152.938 29.2934L152.912 29.3048C152.811 29.349 152.709 29.3953 152.609 29.4403C152.579 29.4559 152.549 29.4681 152.519 29.4833C152.397 29.5418 152.273 29.6024 152.151 29.6677C150.454 30.5526 149.114 31.7642 148.134 33.3046C148.079 33.3918 148.024 33.4798 147.971 33.5686L147.965 33.5792L147.958 33.5914L147.949 33.6081L147.947 33.6118C147.938 33.6267 147.93 33.6417 147.921 33.6566L147.906 33.6823L147.881 33.7263L147.854 33.773L147.835 33.8069L147.818 33.8385C147.799 33.873 147.78 33.9067 147.762 33.9403C147.731 33.9988 147.7 34.0578 147.67 34.118C147.66 34.1373 147.651 34.1566 147.641 34.176L147.632 34.1932L147.62 34.2174C147.583 34.2898 147.55 34.363 147.516 34.4354C147.512 34.4449 147.508 34.4542 147.503 34.4635L147.491 34.4903L147.486 34.5005L147.474 34.5271C147.47 34.535 147.467 34.5431 147.463 34.5512C147.434 34.6186 147.404 34.6884 147.374 34.7558C147.357 34.8009 147.339 34.843 147.323 34.8868C147.315 34.9075 147.307 34.9278 147.299 34.948C147.287 34.9765 147.276 35.0047 147.265 35.0333L147.263 35.0403C147.246 35.0856 147.228 35.1321 147.212 35.1798C147.197 35.2173 147.185 35.2552 147.172 35.2945L147.166 35.3115C147.153 35.3477 147.141 35.3834 147.129 35.4193L147.113 35.466C147.103 35.5039 147.091 35.5401 147.08 35.578C147.045 35.6938 147.011 35.8092 146.98 35.9249C146.973 35.9506 146.967 35.9758 146.96 36.0007C146.953 36.0266 146.947 36.0527 146.941 36.0789C146.932 36.1172 146.923 36.1555 146.915 36.1931L146.904 36.2363L146.892 36.2861L146.885 36.3178L146.878 36.3499C146.869 36.3939 146.86 36.4382 146.851 36.4836C146.848 36.4967 146.846 36.5101 146.843 36.5235L146.835 36.5657L146.827 36.6085L146.823 36.6269L146.823 36.6278C146.814 36.6767 146.805 36.7262 146.797 36.777L146.797 36.7823C146.796 36.7841 146.796 36.7856 146.796 36.7867C146.767 36.961 146.742 37.137 146.723 37.313C146.684 37.6737 146.663 38.04 146.663 38.413C146.663 40.2818 147.154 41.9848 148.135 43.5218C149.115 45.0614 150.454 46.2726 152.152 47.158ZM112.936 36.794H113.044L114.131 41.0161H111.767L112.936 36.794ZM110.477 45.7919H115.339L115.932 48.1567H124.623L117.248 28.6536H109.08L101.705 48.1567H109.846L110.477 45.7919ZM208.008 68.9709C208.606 68.6245 209.082 68.1473 209.439 67.5417C209.792 66.9388 209.969 66.2844 209.97 65.5779C209.97 64.8699 209.793 64.2134 209.44 63.6078C209.082 63.0044 208.604 62.526 207.998 62.1712C207.392 61.8185 206.735 61.6403 206.02 61.6403C205.31 61.6403 204.654 61.8185 204.047 62.1712C203.443 62.526 202.966 62.9996 202.616 63.5989C202.266 64.1976 202.088 64.8567 202.088 65.5779C202.088 66.2944 202.266 66.953 202.616 67.5507C202.966 68.1504 203.443 68.6251 204.047 68.9709C204.654 69.321 205.31 69.4929 206.02 69.4929C206.743 69.4929 207.405 69.321 208.008 68.9709ZM220.487 65.4045C220.487 67.8324 219.847 70.0485 218.566 72.0486C217.284 74.0507 215.542 75.6266 213.334 76.7793C211.126 77.931 208.688 78.5055 206.02 78.5055C203.356 78.5055 200.918 77.9305 198.709 76.7793C196.501 75.6266 194.763 74.0507 193.486 72.0486C192.211 70.0485 191.573 67.8329 191.573 65.4045C191.573 62.9776 192.211 60.7599 193.486 58.7593C194.763 56.7577 196.501 55.1807 198.709 54.0296C200.918 52.88 203.356 52.3028 206.02 52.3028C208.688 52.3028 211.128 52.8805 213.341 54.0296C215.554 55.1807 217.301 56.7577 218.575 58.7593C219.852 60.7599 220.487 62.9771 220.487 65.4045ZM189.894 67.9191C189.032 68.3869 188.075 68.7596 187.028 69.0398C185.979 69.321 184.919 69.4587 183.849 69.4587C182.729 69.4587 181.765 69.2921 180.956 68.9615C180.145 68.6319 179.53 68.173 179.105 67.5874C178.678 66.9971 178.467 66.3296 178.467 65.5779C178.467 64.8231 178.678 64.1529 179.105 63.5668C179.529 62.9791 180.145 62.5197 180.956 62.188C181.765 61.8569 182.728 61.6924 183.849 61.6924C184.897 61.6924 185.934 61.8264 186.958 62.0866C187.983 62.3478 188.907 62.7084 189.735 63.1621V53.6716C188.931 53.2621 187.877 52.9305 186.573 52.6803C185.27 52.4296 183.928 52.3033 182.555 52.3033C179.714 52.3033 177.162 52.8726 174.904 54.0054C172.642 55.1392 170.873 56.7009 169.591 58.6925C168.311 60.6816 167.671 62.9213 167.671 65.405C167.671 67.8802 168.308 70.1152 169.584 72.1106C170.858 74.1054 172.623 75.6718 174.877 76.8056C177.131 77.9405 179.666 78.506 182.486 78.506C183.883 78.506 185.254 78.3699 186.6 78.0955C187.944 77.8222 189.041 77.4684 189.894 77.0353L189.894 67.9191ZM112.55 59.3348H113.509C114.244 59.3348 114.815 59.5057 115.222 59.8447C115.63 60.188 115.834 60.6405 115.834 61.1972C115.834 61.7444 115.632 62.1885 115.23 62.5328C114.829 62.8724 114.255 63.0432 113.509 63.0432H112.55L112.55 59.3348ZM125.861 70.3302C125.861 68.8137 125.472 67.5695 124.691 66.5945C123.912 65.6194 122.765 64.8572 121.25 64.31V64.2401C122.474 63.8186 123.428 63.1878 124.115 62.3425C124.803 61.4994 125.146 60.4382 125.146 59.1619C125.146 56.6966 123.971 55.0062 121.617 54.0895C119.263 53.1717 116.376 52.7133 112.951 52.7133H105.266H102.137V78.0787H113.509C117.063 78.0787 120.009 77.5031 122.351 76.3504C124.691 75.1992 125.861 73.1913 125.861 70.3302ZM115.546 71.2222C115.086 71.6075 114.431 71.8025 113.581 71.8025H112.55V67.61H113.581C114.419 67.61 115.071 67.8092 115.537 68.2008C116.002 68.594 116.236 69.0997 116.236 69.7152C116.236 70.3302 116.005 70.8332 115.546 71.2222ZM138.739 52.7139H128.081V78.0793H138.739V52.7139ZM166.376 52.7139V61.335H159.144V78.0793H148.489V61.335H141.257V52.7139H166.376ZM233.365 52.7139H222.708V78.0793H233.365V52.7139ZM252.499 63.0801L252.57 63.0433V52.7139H262.439V78.0793H252.917L246.472 67.3882L246.401 67.425V78.0793H236.529V52.7139H246.192L252.499 63.0801ZM134.011 35.2835H133.892L133.892 41.8056H133.985C134.747 41.8056 135.42 41.67 136.006 41.3985C136.595 41.1269 137.049 40.7447 137.371 40.2555C137.692 39.7646 137.854 39.1946 137.854 38.5458C137.854 37.5262 137.51 36.7292 136.821 36.1521C136.13 35.5715 135.195 35.2835 134.011 35.2835ZM133.864 48.1567H125.696L125.697 41.1227V28.6541H133.811C136.041 28.6541 138.045 29.0528 139.823 29.8506C141.599 30.6496 142.997 31.7875 144.012 33.2636C145.03 34.7417 145.538 36.4577 145.538 38.4124C145.538 40.3759 145.03 42.0952 144.012 43.5687C142.997 45.0405 141.601 46.1734 139.828 46.967C138.055 47.7597 136.068 48.1567 133.864 48.1567ZM179.021 37.9791C179.729 37.9791 180.273 37.8161 180.654 37.4916C181.034 37.1678 181.225 36.7481 181.225 36.2294C181.225 35.7032 181.031 35.2755 180.645 34.9458C180.261 34.6187 179.72 34.4541 179.021 34.4541H178.794V37.9791H179.021ZM188.453 35.9541C188.453 37.62 188.033 39.0063 187.196 40.1089C186.358 41.214 185.233 42.0274 183.817 42.549C182.402 43.0719 180.812 43.3308 179.049 43.3308H178.794V48.1567H170.599V28.6536H178.189C180.15 28.6536 181.897 28.902 183.436 29.3979C184.97 29.8922 186.19 30.6824 187.097 31.7711C188 32.8577 188.453 34.2537 188.453 35.9541ZM203.471 48.1568V35.2836H209.033V28.6521L189.714 28.6537V35.2836H195.274V48.1568H203.471ZM210.952 28.6521H219.15V48.1568H210.952V28.6521ZM221.581 28.6521V48.1568H229.172V39.9646L229.226 39.9377L234.18 48.1568H241.504V28.6521H233.911V36.5967L233.857 36.624L229.01 28.6521H221.581ZM243.207 38.572C243.207 36.624 243.716 34.8727 244.74 33.3163C245.759 31.7615 247.181 30.541 248.997 29.6616C249.876 29.2364 250.812 28.9139 251.803 28.6946C252.464 28.5464 253.15 28.4461 253.86 28.391C253.863 28.3902 253.866 28.3902 253.868 28.3902C253.975 28.3805 254.081 28.3745 254.188 28.3685L254.258 28.3645C254.274 28.3637 254.29 28.3628 254.303 28.362C254.423 28.3556 254.545 28.3506 254.668 28.3472C254.691 28.3464 254.716 28.3455 254.74 28.3455C254.885 28.3422 255.031 28.3405 255.179 28.3405C256.574 28.3405 257.922 28.4967 259.224 28.8116C260.521 29.1298 261.562 29.5176 262.353 29.9824V36.4131C261.526 36.0809 260.51 35.774 259.302 35.4936C258.092 35.2116 257.027 35.0735 256.106 35.0735C255.083 35.0735 254.225 35.2339 253.523 35.5539C252.826 35.8721 252.302 36.3137 251.955 36.8745C251.604 37.4361 251.428 38.0714 251.428 38.7812C251.428 39.5179 251.609 40.165 251.968 40.7215C252.325 41.2781 252.799 41.7042 253.392 42.0035C253.981 42.3003 254.624 42.4514 255.312 42.4514C255.642 42.4514 255.916 42.4161 256.131 42.3462V41.2929H254.129V37.0572H262.607V46.6193C261.792 47.1359 260.719 47.5775 259.391 47.94C258.06 48.305 256.587 48.4868 254.975 48.4868C252.622 48.4868 250.551 48.0545 248.769 47.191C246.986 46.3284 245.615 45.1433 244.652 43.642C243.69 42.1374 243.207 40.4466 243.207 38.572ZM33.1444 26.5002L33.1578 26.7097L33.1637 26.8029L33.175 27.0248L33.1781 27.0686C33.1798 27.0918 33.1816 27.1155 33.1831 27.1397C33.199 27.3843 33.2252 27.6554 33.2893 27.7084L33.2906 27.7093C33.2997 27.7165 33.3095 27.7186 33.3199 27.7181C33.3379 27.7173 33.3577 27.7046 33.3788 27.6849C33.3804 27.6834 33.3821 27.682 33.3838 27.6805C33.3855 27.6789 33.3871 27.6773 33.3886 27.6756C33.4097 27.6537 33.4317 27.6255 33.4536 27.5918C33.4559 27.5886 33.4581 27.5853 33.4602 27.582C33.4617 27.5796 33.4631 27.5773 33.4644 27.575C33.4876 27.5396 33.5104 27.5009 33.5331 27.4601L33.5413 27.4458C33.5649 27.4032 33.5878 27.3603 33.6097 27.319L33.8114 26.9414C35.0872 24.5657 36.7681 21.6579 38.2658 19.1433C38.7096 18.3947 38.7874 18.268 38.7874 18.268C38.7926 18.2579 38.7995 18.2475 38.8064 18.2371L38.8132 18.2268C38.8717 18.132 38.9355 18.0346 38.9984 17.9386L38.9986 17.9383C39.1446 17.7152 39.2863 17.4989 39.3482 17.3368C39.3748 17.2695 39.3916 17.2088 39.3825 17.165C39.3808 17.1545 39.3765 17.1457 39.3731 17.1389C39.3309 17.0774 39.1865 17.0791 39.0549 17.0918L39.0222 17.0956C38.9907 17.0992 38.9608 17.1032 38.934 17.1068L38.9339 17.1068C38.9114 17.1099 38.8912 17.1126 38.8743 17.1145L38.5367 17.1608C37.5546 17.293 36.5506 17.4399 35.5976 17.5936C35.5325 16.3725 35.4644 15.0184 35.3998 13.7334L35.3995 13.7291C35.3763 13.267 35.3535 12.8139 35.3315 12.3792L35.3086 11.9236L35.3074 11.9067C35.3068 11.8987 35.3061 11.8905 35.3056 11.882C35.2983 11.7219 35.2833 11.5106 35.2334 11.4281C35.2192 11.4075 35.205 11.394 35.1874 11.3932C35.177 11.3928 35.1644 11.4 35.1518 11.4071L35.1518 11.4072C35.1477 11.4095 35.1437 11.4118 35.1397 11.4138C35.1377 11.4149 35.1357 11.4157 35.1338 11.4165C35.1316 11.4174 35.1294 11.4181 35.1272 11.4188C35.1206 11.4211 35.1138 11.4234 35.1061 11.4294C35.0928 11.4398 35.0782 11.4558 35.0636 11.4717L35.0511 11.4854C35.0457 11.4911 35.0404 11.4962 35.0352 11.5013C35.027 11.5091 35.0188 11.517 35.0102 11.5275C34.9922 11.5494 34.9728 11.5771 34.9543 11.6024C34.9484 11.6104 34.9425 11.6181 34.9366 11.6258L34.9366 11.6258C34.9259 11.6398 34.9151 11.6539 34.904 11.6702C34.8679 11.7228 34.8309 11.7797 34.7939 11.8382C34.7718 11.8737 34.7492 11.9096 34.7266 11.9454C34.6995 11.9883 34.6725 12.0311 34.6469 12.0727L34.3012 12.6376L34.2921 12.6523C34.2595 12.7048 34.2254 12.7597 34.1928 12.8136C33.2222 14.4046 31.4003 17.4888 31.4003 17.4888C31.3139 17.6353 31.23 17.7763 31.1509 17.9081C31.0881 18.0167 31.0249 18.1249 30.9604 18.2327C30.9032 18.3295 30.1455 19.6211 29.9804 19.9032L29.6957 20.3916L29.6435 20.478L29.6434 20.4782C29.5768 20.5882 29.4979 20.7184 29.433 20.8382C29.353 20.9873 29.2937 21.1186 29.3096 21.1759C29.3122 21.1847 29.3165 21.1927 29.3212 21.1994C29.3354 21.2142 29.3547 21.2251 29.381 21.231C29.3886 21.2326 29.4092 21.2315 29.431 21.2302L29.4325 21.2302L29.4493 21.2293L29.4622 21.2285C29.4842 21.2268 29.5083 21.2243 29.534 21.2213L29.5447 21.2203C29.5528 21.2195 29.5606 21.2187 29.5693 21.2175L29.6488 21.2075C29.66 21.2062 29.6717 21.2045 29.6824 21.2032C29.7164 21.1986 29.7465 21.1939 29.7654 21.1906C29.9787 21.1535 30.1928 21.1178 30.407 21.0862C30.441 21.0807 30.4749 21.0762 30.5086 21.0717L30.5087 21.0717L30.5087 21.0717C30.5366 21.068 30.5644 21.0643 30.5919 21.0601C30.8697 21.0201 31.1479 20.9839 31.4227 20.9515C31.9116 20.893 32.3893 20.845 32.8335 20.8079C32.8842 21.7032 32.9337 22.6283 32.9832 23.5527L32.9832 23.5531L32.9833 23.5541C33.0366 24.5497 33.0898 25.5445 33.1444 26.5002ZM28.4973 76.8151C28.0698 76.9092 27.6377 77.0048 27.1982 77.1058C24.8014 77.653 17.1279 79.4832 11.2073 81.6042L11.1519 81.4886C11.9699 80.5739 12.7628 79.6383 13.5389 78.6843C12.4975 76.055 10.8704 73.1829 8.39479 70.3523C8.21549 70.3339 8.03876 70.3245 7.8616 70.3239C7.70979 70.3239 7.55669 70.3308 7.40101 70.3444C7.37116 70.3467 7.34089 70.3503 7.31064 70.3539C7.29861 70.3553 7.28659 70.3568 7.2746 70.3581C7.15292 70.3713 7.02866 70.3896 6.90133 70.4117C6.85274 70.4201 6.80371 70.4285 6.75387 70.438C6.58445 70.4722 6.41159 70.5106 6.2275 70.561C5.30214 70.8112 4.3699 71.5729 3.761 72.5916C3.28326 73.3926 3.06223 74.1506 2.94054 74.8418C1.6346 72.8491 2.17555 70.4674 3.30218 69.5444C3.38387 69.4777 3.46686 69.4162 3.54986 69.3589C3.56468 69.3486 3.57964 69.3395 3.59466 69.3304C3.60664 69.3231 3.61867 69.3158 3.63069 69.3079L3.64669 69.2976C3.6977 69.2647 3.74881 69.2317 3.80098 69.2022C3.8212 69.1908 3.84143 69.1807 3.86175 69.1706C3.87514 69.164 3.88856 69.1573 3.90205 69.1502C3.91537 69.1434 3.92869 69.1366 3.94202 69.1297C3.97946 69.1104 4.01696 69.091 4.05469 69.074C4.08017 69.0622 4.10606 69.0523 4.13194 69.0424C4.14318 69.0381 4.15443 69.0337 4.16563 69.0293L4.17686 69.0246C4.22177 69.0062 4.26702 68.9878 4.31227 68.972C4.33986 68.9626 4.36746 68.9546 4.39506 68.9466C4.40617 68.9433 4.41727 68.9401 4.42838 68.9368C4.43798 68.9339 4.4476 68.931 4.45723 68.9281C4.49548 68.9166 4.53394 68.905 4.57242 68.8958C4.59877 68.8891 4.62551 68.8839 4.65225 68.8786C4.66564 68.876 4.67903 68.8734 4.69238 68.8705C4.73969 68.8611 4.78744 68.8511 4.83474 68.8437C4.87559 68.8374 4.91601 68.8332 4.95686 68.829C5.00404 68.8232 5.05158 68.818 5.09919 68.8143C5.14047 68.8117 5.18131 68.8106 5.22302 68.8096C5.26473 68.808 5.30645 68.8069 5.34816 68.8075C5.51802 68.8085 5.68873 68.8227 5.85987 68.8474C5.87186 68.8491 5.88384 68.8504 5.89585 68.852C5.89891 68.8524 5.90197 68.8528 5.90503 68.8532C6.08004 68.8805 6.25548 68.92 6.43049 68.9683C6.44123 68.972 6.4524 68.9746 6.46362 68.9773C6.64379 69.0288 6.82352 69.0913 7.00283 69.1618C7.00884 69.1644 7.01443 69.1665 7.02044 69.1686C7.20581 69.2422 7.38984 69.3252 7.57302 69.4156C7.45262 69.3142 7.33094 69.2175 7.20925 69.1229C7.19376 69.111 7.17817 69.0993 7.16259 69.0876C7.147 69.0759 7.13141 69.0642 7.11592 69.0524C6.99467 68.9615 6.87255 68.8732 6.74958 68.7906C6.74807 68.7899 6.74655 68.7888 6.74502 68.7877C6.74351 68.7867 6.742 68.7856 6.7405 68.7849C6.61538 68.7018 6.48854 68.6251 6.36084 68.5515C6.32814 68.5326 6.29592 68.5147 6.26364 68.4968C6.14024 68.429 6.01598 68.3644 5.88957 68.3065C5.88524 68.3046 5.88107 68.3024 5.87674 68.3001C5.8742 68.2988 5.8716 68.2974 5.86889 68.296C5.73776 68.2366 5.60399 68.1846 5.46942 68.1368C5.435 68.1247 5.39977 68.1126 5.36493 68.1015C5.23851 68.059 5.10993 68.0211 4.97964 67.9906C4.97403 67.9893 4.96831 67.9877 4.96259 67.9861C4.95692 67.9846 4.95125 67.983 4.94568 67.9817C4.80636 67.9496 4.66444 67.9265 4.52082 67.9086C4.4834 67.9039 4.44601 67.9002 4.40817 67.8965C4.2753 67.8829 4.14026 67.8745 4.00309 67.8729C3.99514 67.8729 3.98718 67.8725 3.97922 67.8721C3.97127 67.8717 3.96331 67.8713 3.95535 67.8713C3.91374 67.8713 3.87152 67.8736 3.82924 67.8758C3.81036 67.8768 3.79146 67.8778 3.77261 67.8787C3.75109 67.8797 3.7297 67.8803 3.70832 67.8809C3.67415 67.8819 3.63999 67.8829 3.60534 67.8855C3.56104 67.8892 3.51569 67.8951 3.47046 67.901C3.45072 67.9036 3.43101 67.9062 3.41141 67.9086C3.39007 67.9113 3.36886 67.9135 3.34765 67.9157C3.31372 67.9193 3.2798 67.9229 3.2454 67.9281C3.19066 67.9365 3.13489 67.9481 3.07909 67.9597C3.06214 67.9632 3.04518 67.9667 3.02825 67.9701C3.01046 67.9736 2.99282 67.9768 2.97523 67.9799C2.94223 67.9858 2.9094 67.9917 2.87602 67.9996C2.75132 68.0279 2.62447 68.0616 2.49633 68.101C1.70855 68.3302 0.828766 69.0924 0.0298084 69.9534C0.013038 69.7652 0.00313454 69.5796 0.000124475 69.3978C-0.000348376 69.3674 0.000611131 69.338 0.00157088 69.3086C0.00235672 69.2846 0.00314273 69.2605 0.00314273 69.2359L0.0032178 69.2133C0.00359648 69.0955 0.00397667 68.9778 0.0104391 68.8632C0.0124128 68.8288 0.0159471 68.7953 0.0194949 68.7617C0.0221307 68.7367 0.0247739 68.7116 0.0267901 68.6861C0.0284717 68.6661 0.0301122 68.646 0.0317527 68.626C0.0393416 68.5333 0.0469319 68.4407 0.0585998 68.3512C0.0634154 68.3156 0.0697258 68.2811 0.076033 68.2465C0.080427 68.2225 0.0848193 68.1985 0.0887036 68.1741C0.0917108 68.1553 0.0946769 68.1365 0.0976414 68.1178C0.111209 68.0319 0.124743 67.9462 0.142035 67.8634C0.14978 67.8274 0.158768 67.7932 0.167785 67.7588C0.173787 67.7359 0.179801 67.713 0.185472 67.6894C0.190277 67.6695 0.195026 67.6496 0.199777 67.6296C0.217985 67.553 0.236215 67.4763 0.2577 67.403C0.267874 67.3673 0.279713 67.3332 0.29156 67.2992C0.298739 67.2785 0.305922 67.2579 0.312737 67.2369L0.322337 67.207C0.347915 67.1275 0.373581 67.0476 0.402629 66.9719C0.41623 66.9359 0.431508 66.9015 0.446745 66.8672C0.454631 66.8494 0.462506 66.8316 0.470132 66.8137C0.477854 66.7954 0.485511 66.7771 0.493167 66.7587C0.519618 66.6952 0.54605 66.6318 0.575065 66.5719C0.590244 66.5403 0.606572 66.5106 0.622934 66.4808C0.63299 66.4624 0.643059 66.4441 0.652882 66.4253C0.661888 66.4082 0.670827 66.3911 0.679766 66.3739C0.709666 66.3166 0.73957 66.2592 0.77201 66.205C0.78919 66.1761 0.807701 66.1487 0.826195 66.1213C0.837327 66.1048 0.848453 66.0883 0.859278 66.0715C0.86961 66.0557 0.879894 66.0399 0.890182 66.024C0.923139 65.9731 0.956134 65.9222 0.990876 65.8749C1.01085 65.8478 1.03171 65.8226 1.05254 65.7975C1.06444 65.7831 1.07634 65.7687 1.08806 65.754C1.09686 65.743 1.10564 65.7319 1.11443 65.7207C1.15203 65.6732 1.18972 65.6255 1.22911 65.5816C1.25288 65.5554 1.27726 65.5317 1.30169 65.5079C1.31305 65.4968 1.32442 65.4857 1.33574 65.4744C1.34691 65.4631 1.35806 65.4518 1.36921 65.4404C1.40699 65.4018 1.44481 65.3633 1.48366 65.3288C1.51007 65.3053 1.53753 65.2841 1.56501 65.2629C1.5769 65.2538 1.5888 65.2446 1.60061 65.2352C1.61275 65.2256 1.62486 65.2158 1.63698 65.2061C1.6751 65.1753 1.71327 65.1446 1.75242 65.1175C1.77921 65.0991 1.80637 65.0833 1.83365 65.0674C1.8484 65.0589 1.86319 65.0503 1.87798 65.0413C1.88619 65.0362 1.8944 65.0311 1.90261 65.026C1.94549 64.9994 1.98832 64.9728 2.03235 64.9503C2.06272 64.935 2.09308 64.9228 2.12372 64.9104C2.13735 64.9049 2.15103 64.8994 2.16479 64.8935C2.17731 64.8882 2.18981 64.8828 2.2023 64.8774C2.24172 64.8602 2.28107 64.8431 2.3209 64.8299C2.35041 64.8204 2.38028 64.8133 2.41016 64.8062C2.42643 64.8023 2.44271 64.7985 2.45893 64.7942C2.47307 64.7908 2.48722 64.7871 2.50138 64.7835C2.53931 64.7738 2.57737 64.7641 2.61588 64.7579C2.64737 64.7527 2.67906 64.7507 2.71068 64.7487C2.72655 64.7477 2.7424 64.7467 2.75821 64.7453C2.77562 64.7441 2.79292 64.7425 2.81017 64.741C2.85259 64.7371 2.89473 64.7333 2.93752 64.7348C4.56811 64.779 6.33888 65.8381 7.94543 68.4337C7.53559 67.1995 7.44704 65.6436 8.51476 64.1251C8.88196 63.7114 9.6728 62.9949 11.0049 62.8772C11.2006 62.8598 11.3859 62.853 11.5635 62.8541C11.6001 62.8544 11.6344 62.8568 11.6688 62.8591C11.6894 62.8606 11.7101 62.862 11.7312 62.863C11.8469 62.8677 11.9617 62.8735 12.0697 62.8872C12.115 62.8928 12.1579 62.9012 12.2008 62.9095C12.2176 62.9128 12.2345 62.9161 12.2515 62.9192C12.3462 62.9366 12.439 62.9555 12.5272 62.9802C12.5819 62.9958 12.6351 63.0151 12.6879 63.0342L12.7 63.0386C12.7817 63.0675 12.8604 63.1001 12.9365 63.1363C12.9903 63.1626 13.0428 63.191 13.0939 63.221C13.1657 63.263 13.2341 63.3098 13.3003 63.3603C13.3472 63.3949 13.3936 63.4302 13.4379 63.4696C13.5033 63.5269 13.5635 63.591 13.6228 63.6572C13.633 63.6686 13.6433 63.6798 13.6536 63.691C13.6821 63.722 13.7107 63.7531 13.7372 63.7871C13.7983 63.8659 13.8542 63.9547 13.9092 64.0441C13.9199 64.0618 13.9311 64.0788 13.9423 64.0958C13.9595 64.1219 13.9766 64.148 13.9922 64.1766C14.07 64.319 14.1423 64.4725 14.2063 64.6402C14.073 64.6139 13.9346 64.5955 13.7935 64.5839C13.767 64.5818 13.7397 64.5809 13.7124 64.58C13.6929 64.5794 13.6734 64.5787 13.6542 64.5776C13.5558 64.5724 13.4568 64.5687 13.3562 64.5697C13.3227 64.5705 13.289 64.5722 13.2552 64.5739C13.2439 64.5744 13.2325 64.575 13.2212 64.5755C13.121 64.5797 13.0195 64.5866 12.9181 64.5976C12.9084 64.5986 12.8988 64.5996 12.8891 64.6005C12.8526 64.6042 12.816 64.6079 12.7796 64.6129C12.6648 64.6276 12.5508 64.6465 12.4373 64.6686C12.4274 64.6704 12.4174 64.6721 12.4074 64.6738C12.3887 64.677 12.3698 64.6802 12.3513 64.6843C12.2102 64.7138 12.0709 64.7495 11.935 64.79C11.9159 64.7957 11.8973 64.8019 11.8787 64.8081C11.8647 64.8128 11.8506 64.8175 11.8362 64.8221C11.7347 64.8552 11.6349 64.8893 11.5377 64.9272C11.5049 64.9402 11.4731 64.9534 11.4411 64.9668C11.4316 64.9707 11.4221 64.9747 11.4126 64.9787C11.3236 65.016 11.2376 65.0565 11.1546 65.0985C11.1189 65.1169 11.0828 65.1343 11.048 65.1532C10.9349 65.2147 10.8269 65.2794 10.7284 65.3493C9.77897 66.0221 9.35415 66.7333 9.09354 67.814C9.01744 68.1294 8.97099 68.4406 8.94087 68.7475C9.4311 67.6668 10.4937 66.9572 11.2642 66.6634C11.3868 66.6213 11.5209 66.5914 11.659 66.5677C11.6929 66.5619 11.7274 66.5567 11.7622 66.5514C11.902 66.5325 12.046 66.5194 12.1948 66.5194H12.1991C12.2036 66.5194 12.2082 66.5196 12.2128 66.5199C12.2175 66.5201 12.2221 66.5204 12.2266 66.5204C12.3212 66.5215 12.4167 66.5262 12.5126 66.5351C12.5342 66.5373 12.5557 66.5401 12.5771 66.5429C12.5916 66.5447 12.606 66.5466 12.6205 66.5483C12.6915 66.5572 12.7624 66.5677 12.8333 66.5809C12.8725 66.5882 12.9116 66.5966 12.9511 66.6056C13.0208 66.6213 13.0901 66.6392 13.1589 66.6592C13.1959 66.6697 13.2328 66.6802 13.2698 66.6923C13.3519 66.7196 13.4328 66.7512 13.5132 66.7853C13.5238 66.7902 13.5346 66.7944 13.5456 66.7986C13.5558 66.8025 13.5662 66.8065 13.5764 66.8111C13.6753 66.8558 13.7712 66.9067 13.8645 66.9625C13.8811 66.9723 13.8969 66.983 13.9127 66.9938C13.9232 67.001 13.9337 67.0081 13.9445 67.015C14.0103 67.0576 14.0743 67.1028 14.1367 67.1512C14.1672 67.175 14.1968 67.2008 14.2265 67.2267L14.2279 67.2279C14.2833 67.2752 14.3362 67.3262 14.3874 67.3793C14.4153 67.4082 14.4428 67.4371 14.4695 67.4676C14.5228 67.5296 14.5727 67.5953 14.62 67.6637C14.6263 67.6724 14.6327 67.6809 14.6392 67.6895C14.6518 67.7064 14.6646 67.7234 14.6759 67.7415C14.7379 67.8387 14.7942 67.9417 14.8423 68.0521C14.8479 68.0647 14.8526 68.0779 14.8572 68.091C14.8607 68.101 14.8642 68.1109 14.8681 68.1205C14.9047 68.2114 14.9374 68.3055 14.9645 68.4043C14.9737 68.4389 14.9811 68.475 14.9885 68.5107C14.9901 68.5183 14.9917 68.526 14.9933 68.5336C15.0118 68.6198 15.0272 68.7097 15.0384 68.8022C15.044 68.8521 15.0487 68.9016 15.0526 68.9531C15.0595 69.0514 15.0604 69.1544 15.0578 69.2595C15.0575 69.2743 15.0574 69.289 15.0573 69.3036C15.0571 69.3371 15.0568 69.3705 15.0547 69.4056C15.0444 69.5628 15.0272 69.7252 14.9963 69.8966C14.8484 69.7715 14.7 69.6585 14.5512 69.5534C14.5219 69.5322 14.492 69.513 14.4621 69.4938C14.4452 69.4829 14.4283 69.4721 14.4115 69.4608C14.3078 69.392 14.2042 69.3268 14.1006 69.2674C14.0468 69.2369 13.9931 69.208 13.9389 69.1801C13.8391 69.1271 13.7385 69.0792 13.6383 69.0356C13.6282 69.0312 13.6181 69.0268 13.6081 69.0223C13.5654 69.0035 13.5228 68.9848 13.4796 68.9678C13.3678 68.9236 13.2561 68.8858 13.143 68.8511C13.1249 68.8456 13.1068 68.8395 13.0886 68.8334C13.0665 68.826 13.0443 68.8185 13.0221 68.8122C12.8695 68.7696 12.7159 68.7355 12.5616 68.7092C12.5453 68.7065 12.5287 68.7047 12.5121 68.7029C12.4956 68.701 12.479 68.6992 12.4626 68.6966C12.3397 68.6787 12.2167 68.664 12.0924 68.6556C12.0467 68.6525 12.0003 68.6513 11.9541 68.65C11.9447 68.6498 11.9354 68.6495 11.926 68.6492C11.8159 68.645 11.7058 68.6435 11.5945 68.6466C11.5511 68.6471 11.5081 68.6487 11.4642 68.6508C11.3098 68.6582 11.1542 68.6703 10.9972 68.6897C10.4343 68.7612 9.78799 69.0645 9.24148 69.5497C9.30555 69.5796 9.36617 69.6159 9.4195 69.6632C11.0656 70.8186 13.6959 73.0941 15.7836 75.7717C15.8348 75.7022 15.8867 75.6332 15.9385 75.5643C16.0078 75.4722 16.077 75.3802 16.1444 75.287C16.8767 74.2694 17.5806 73.2318 18.2712 72.1863C18.0137 67.721 17.0616 62.5271 14.9834 57.8069C14.8501 57.7916 14.7181 57.7811 14.5873 57.7732C14.5652 57.772 14.5437 57.7715 14.5221 57.771C14.5059 57.7706 14.4898 57.7702 14.4734 57.7695H14.4699L14.4342 57.7683C14.3563 57.7655 14.2792 57.7627 14.2034 57.7627C14.1027 57.7622 14.0038 57.7632 13.9079 57.7669C13.8927 57.7672 13.8783 57.768 13.8637 57.7688C13.8557 57.7692 13.8475 57.7697 13.8391 57.7701C13.7622 57.7732 13.6869 57.7774 13.6142 57.7832C13.5855 57.7857 13.5571 57.7877 13.529 57.7897L13.5239 57.79C13.4534 57.7963 13.3855 57.8026 13.3214 57.8105L13.2646 57.8168C13.1855 57.8263 13.112 57.8368 13.0436 57.8479C13.0234 57.851 13.0058 57.8542 12.9864 57.8578C12.937 57.8662 12.8909 57.8747 12.8488 57.8836C12.8377 57.8857 12.8267 57.888 12.8159 57.8902C12.8104 57.8914 12.805 57.8925 12.7998 57.8936C12.7482 57.9051 12.7009 57.9172 12.6643 57.9277C10.9211 58.4502 8.6373 59.8369 7.81902 62.2843C7.35891 61.7192 7.11893 60.8361 7.25957 59.7691C7.37996 58.8518 8.06367 57.799 8.66093 57.317C8.76457 57.2329 8.87208 57.1556 8.98216 57.0836C9.00387 57.0695 9.02617 57.0566 9.04844 57.0437C9.06369 57.0348 9.07893 57.026 9.09397 57.0168L9.11416 57.0047C9.18263 56.9627 9.25104 56.9211 9.32187 56.8833C9.35 56.8687 9.37911 56.8551 9.40819 56.8415C9.42625 56.8331 9.44429 56.8247 9.46208 56.816L9.47723 56.8086C9.54345 56.7764 9.60914 56.7445 9.6771 56.7161C9.71578 56.7 9.75522 56.6856 9.79466 56.6712C9.80779 56.6664 9.82091 56.6616 9.83401 56.6567L9.84931 56.651C9.86014 56.647 9.87095 56.6429 9.88176 56.6389C9.93616 56.6187 9.99042 56.5985 10.046 56.5805C10.0814 56.5695 10.1173 56.5595 10.1532 56.5495C10.1737 56.5438 10.1942 56.5381 10.2146 56.5322C10.2851 56.5122 10.3552 56.4927 10.427 56.4759C10.4834 56.4627 10.5406 56.4515 10.5975 56.4403L10.6033 56.4391C10.6118 56.4375 10.6204 56.4358 10.6289 56.4342C10.6913 56.4221 10.7538 56.41 10.817 56.4008C10.8627 56.3932 10.9086 56.3875 10.9546 56.3818C10.9697 56.3799 10.9847 56.378 10.9998 56.3761C11.0712 56.3671 11.143 56.3592 11.2152 56.3535C11.2776 56.3482 11.3395 56.3445 11.4018 56.3414C11.4741 56.3377 11.5463 56.3351 11.6186 56.334C11.6676 56.3335 11.717 56.3335 11.766 56.334C11.9793 56.3361 12.1935 56.3477 12.4072 56.3713C12.4325 56.3736 12.4576 56.3768 12.4828 56.38C12.4918 56.3812 12.5009 56.3823 12.51 56.3834C12.7263 56.4097 12.9421 56.4454 13.1558 56.4917C13.1728 56.4952 13.1899 56.4993 13.207 56.5034C13.2181 56.506 13.2291 56.5087 13.2402 56.5111C13.4594 56.5616 13.6766 56.6205 13.8894 56.6904C13.8998 56.6936 13.9101 56.6973 13.9205 56.701C13.9273 56.7035 13.9342 56.706 13.9411 56.7083C14.1638 56.7834 14.3826 56.8665 14.5938 56.9611C14.5916 56.9569 14.5899 56.9522 14.5878 56.948C13.5656 56.1669 12.3702 55.5818 12.0365 55.4919C11.9966 55.4809 11.9428 55.4646 11.8826 55.4462L11.7175 55.3952C11.6962 55.3884 11.6731 55.3816 11.6501 55.3749C11.641 55.3722 11.6319 55.3695 11.6229 55.3668C11.5704 55.3511 11.5154 55.3348 11.4565 55.3179C11.427 55.3095 11.3973 55.3011 11.3666 55.2927L11.355 55.2896C11.287 55.2706 11.2152 55.2522 11.1399 55.2333C11.1094 55.226 11.0806 55.2186 11.0488 55.2107C10.9404 55.185 10.8265 55.1597 10.7065 55.1361C10.6914 55.1334 10.6751 55.1313 10.6601 55.1282C10.556 55.1087 10.4476 55.0903 10.3354 55.0746C10.3079 55.0707 10.2797 55.0673 10.2516 55.0638C10.2379 55.0622 10.2243 55.0605 10.2107 55.0588C10.12 55.0472 10.0271 55.0378 9.93164 55.0294C9.88218 55.0252 9.83272 55.022 9.78283 55.0189C9.68778 55.0131 9.59193 55.0094 9.49344 55.0078C9.47478 55.0076 9.45611 55.0074 9.43738 55.0071C9.39959 55.0065 9.36155 55.0059 9.32273 55.0062C9.29483 55.0066 9.26695 55.0074 9.23894 55.0082C9.22463 55.0086 9.21029 55.009 9.19589 55.0094C9.1133 55.0125 9.02904 55.0173 8.94479 55.0236C8.9022 55.0267 8.86048 55.0299 8.81789 55.0341C8.71431 55.0441 8.60981 55.0578 8.50488 55.0751C8.49758 55.0761 8.49033 55.0771 8.4831 55.078C8.46772 55.08 8.45242 55.0821 8.43689 55.0846C8.31048 55.1066 8.18278 55.134 8.05465 55.166C8.03066 55.1722 8.00648 55.1794 7.98225 55.1865C7.96955 55.1902 7.95684 55.194 7.94414 55.1976C7.85081 55.2233 7.75667 55.2522 7.66248 55.2843C7.61775 55.299 7.57302 55.3158 7.52828 55.3327C7.43673 55.3668 7.34511 55.4052 7.25355 55.4462C7.24051 55.4521 7.22751 55.4578 7.21453 55.4635C7.18683 55.4757 7.15921 55.4878 7.13139 55.5014C7.00111 55.5639 6.87083 55.6317 6.74136 55.7095C5.82674 56.2562 5.11123 56.9206 4.54835 57.4904C4.39225 56.426 4.35655 54.6183 5.11208 53.1565C5.19206 53.0083 5.28236 52.8711 5.37738 52.7381C5.38361 52.7295 5.3898 52.7209 5.39598 52.7123C5.41031 52.6924 5.42459 52.6726 5.43929 52.6535C5.5352 52.5274 5.63584 52.4078 5.7442 52.2967C5.75416 52.2865 5.76442 52.2769 5.77471 52.2673C5.78219 52.2604 5.78969 52.2534 5.7971 52.2462C5.89773 52.1464 6.00352 52.0538 6.11361 51.967C6.1209 51.9612 6.1282 51.9552 6.13554 51.9492C6.14936 51.9379 6.16332 51.9264 6.17767 51.9157C6.29978 51.8239 6.42748 51.741 6.55948 51.6648C6.57783 51.6542 6.59669 51.6441 6.6154 51.6341C6.62566 51.6286 6.63588 51.6231 6.64594 51.6176C6.77664 51.5469 6.91041 51.4817 7.04885 51.4261C7.05787 51.4227 7.06603 51.4181 7.07505 51.4147C7.22042 51.3579 7.37094 51.3111 7.52361 51.2707C7.55755 51.2619 7.59154 51.2531 7.62591 51.2446C7.77901 51.208 7.93426 51.1781 8.09337 51.1583C8.10603 51.1565 8.11903 51.1555 8.13207 51.1544C8.13982 51.1538 8.14758 51.1532 8.15529 51.1524C8.30318 51.136 8.45284 51.1276 8.60503 51.1255C8.61841 51.1253 8.63179 51.125 8.6452 51.1247C8.66542 51.1243 8.68569 51.1238 8.70609 51.1238C8.81489 51.1251 8.92497 51.1301 9.03549 51.1385C9.04732 51.1396 9.05893 51.1401 9.07053 51.1406C9.08214 51.1411 9.09375 51.1417 9.10557 51.1427C9.24057 51.155 9.37691 51.173 9.51369 51.1967C9.53173 51.1998 9.55003 51.2037 9.56838 51.2076C9.58412 51.211 9.59989 51.2143 9.61556 51.2173C9.71834 51.237 9.82112 51.2589 9.92433 51.2851C9.95874 51.2937 9.99337 51.3035 10.0279 51.3132C10.0404 51.3168 10.0529 51.3203 10.0654 51.3237C10.1574 51.3495 10.2494 51.3776 10.3419 51.4088C10.3913 51.4257 10.4403 51.4425 10.4898 51.4606C10.5836 51.4951 10.6777 51.533 10.7719 51.573C10.7854 51.5787 10.7989 51.5844 10.8123 51.59C10.8434 51.6031 10.8744 51.616 10.9056 51.6298C11.0247 51.6837 11.1443 51.7426 11.2625 51.8054C11.2806 51.8147 11.2986 51.8226 11.3167 51.8323C11.453 51.9064 11.5889 51.9873 11.7239 52.0732C11.7471 52.088 11.7702 52.1039 11.7931 52.1197C11.8072 52.1294 11.8213 52.1391 11.8353 52.1485C11.9329 52.2125 12.0292 52.2794 12.1251 52.3502C12.1628 52.3783 12.2005 52.4074 12.2382 52.4366C12.2473 52.4437 12.2565 52.4508 12.2657 52.4579C12.3525 52.5253 12.4381 52.5946 12.5233 52.6671L12.5404 52.6818C12.582 52.7174 12.6239 52.7531 12.6648 52.7901C12.7525 52.8679 12.8385 52.9499 12.9245 53.034C12.9358 53.045 12.9471 53.0558 12.9584 53.0666C12.9884 53.0953 13.0182 53.1239 13.0479 53.1544C13.1623 53.2706 13.275 53.392 13.3859 53.5187C13.3908 53.5245 13.396 53.53 13.4012 53.5355C13.4063 53.541 13.4115 53.5465 13.4164 53.5523C13.5369 53.6916 13.6547 53.8383 13.7703 53.9902C13.7938 54.0206 13.8166 54.0527 13.8394 54.0847C13.8505 54.1002 13.8615 54.1157 13.8726 54.131C13.9535 54.2404 14.0326 54.3518 14.11 54.468C14.1423 54.5164 14.1741 54.5658 14.206 54.6155C14.2135 54.6273 14.2211 54.6391 14.2287 54.6509C14.2992 54.7613 14.3685 54.8743 14.4364 54.9905L14.4512 55.0157C14.4846 55.073 14.5178 55.1298 14.5508 55.1886C14.6205 55.3137 14.6884 55.443 14.755 55.5745C14.7678 55.5999 14.781 55.6251 14.7941 55.6503C14.8126 55.6859 14.8311 55.7215 14.8488 55.7579C14.9438 55.954 15.0363 56.1548 15.124 56.3634C15.0947 56.0901 15.0784 55.8215 15.0724 55.5582C15.0711 55.5021 15.0727 55.4472 15.0744 55.3923C15.0754 55.3587 15.0764 55.3251 15.0767 55.2911L15.0769 55.2517C15.0776 55.0941 15.0784 54.9367 15.0879 54.7828C15.0918 54.7167 15.0989 54.6522 15.1061 54.5877C15.1099 54.5528 15.1138 54.5178 15.1171 54.4827C15.119 54.4637 15.1208 54.4446 15.1226 54.4256C15.1348 54.2963 15.147 54.1673 15.1657 54.0422C15.177 53.967 15.1914 53.8941 15.2058 53.8209C15.2113 53.7933 15.2167 53.7657 15.222 53.7379C15.2257 53.7181 15.2294 53.6984 15.2331 53.6787C15.2546 53.5639 15.276 53.4497 15.3025 53.3389C15.3188 53.2701 15.3377 53.2037 15.3566 53.1372C15.3656 53.1057 15.3746 53.0742 15.3833 53.0424C15.388 53.0258 15.3928 53.0091 15.3975 52.9925C15.4279 52.8856 15.4583 52.7787 15.4929 52.675C15.5191 52.5975 15.5477 52.5224 15.5764 52.4472C15.5832 52.4296 15.5899 52.412 15.5966 52.3944C15.64 52.2798 15.6843 52.1658 15.7324 52.0559C15.769 51.9728 15.808 51.8933 15.8472 51.8134L15.8572 51.7932C15.9088 51.6879 15.9612 51.5835 16.0171 51.4833C16.0631 51.4004 16.1117 51.3208 16.1603 51.2416C16.2197 51.1457 16.2799 51.0518 16.3426 50.9613C16.3947 50.8864 16.4476 50.8139 16.5022 50.7428C16.568 50.6565 16.635 50.5731 16.7039 50.4927C16.7606 50.4266 16.8182 50.3622 16.8771 50.2995C16.949 50.2237 17.022 50.1513 17.0969 50.0814C17.158 50.0242 17.2195 49.9682 17.2822 49.9147C17.3592 49.8494 17.4374 49.7892 17.5166 49.7303C17.5811 49.6823 17.646 49.6347 17.7118 49.5909C17.7926 49.5375 17.876 49.4895 17.9591 49.4423C17.9694 49.4365 17.9798 49.4307 17.9901 49.4248C18.0472 49.3927 18.1041 49.3606 18.162 49.332C18.2472 49.2908 18.3341 49.2558 18.4205 49.2213C18.4368 49.2148 18.4531 49.2082 18.4694 49.2016C18.5218 49.1804 18.5742 49.1591 18.6277 49.1418C18.708 49.1154 18.7893 49.096 18.8707 49.0766C18.8792 49.0746 18.8876 49.0726 18.896 49.0706C18.9171 49.0656 18.9381 49.0604 18.959 49.0551C19.0074 49.0429 19.0557 49.0308 19.1046 49.0226C19.1831 49.0094 19.2622 49.0032 19.3414 48.9969C19.3555 48.9958 19.3696 48.9947 19.3837 48.9935C19.4062 48.9917 19.4285 48.9895 19.4508 48.9873C19.4967 48.9827 19.5424 48.9781 19.5884 48.9776C19.7436 48.9759 19.8993 48.9834 20.0541 49.0058C21.3918 49.199 23.2774 50.0789 23.4403 52.807C23.3217 52.7281 23.2017 52.6598 23.0817 52.5962C23.046 52.5777 23.0106 52.5605 22.9749 52.5433L22.9726 52.5421C22.8861 52.4996 22.7992 52.4604 22.7124 52.4255C22.6741 52.4099 22.6354 52.3944 22.5971 52.38C22.5 52.3443 22.4032 52.3127 22.3065 52.2849C22.2828 52.2782 22.2596 52.2697 22.2359 52.2634C22.1164 52.2314 21.9973 52.2053 21.879 52.1843C21.8604 52.1812 21.8422 52.1786 21.8241 52.176C21.8103 52.1741 21.7966 52.1722 21.7827 52.17C21.695 52.1561 21.6072 52.1443 21.5208 52.1359C21.4817 52.1321 21.4425 52.1287 21.4034 52.1258C21.3196 52.1195 21.2357 52.1153 21.1532 52.1136C21.1285 52.1129 21.1043 52.1118 21.0802 52.1112C21.072 52.1109 21.0638 52.1107 21.0556 52.1106C21.028 52.1106 21.0009 52.1123 20.9734 52.1123C20.7631 52.1144 20.5568 52.1258 20.3606 52.1468C19.1884 52.2735 17.9337 52.9384 17.0792 54.0874C16.7718 54.4995 16.2927 55.4998 15.9819 56.5679C16.7486 55.4793 18.0971 54.6125 18.9476 54.4354C19.1226 54.4039 19.2925 54.386 19.4602 54.3749C19.4996 54.3719 19.5384 54.3706 19.5771 54.3694C19.5849 54.3691 19.5926 54.3689 19.6004 54.3686C19.7126 54.3644 19.8214 54.3665 19.9298 54.3707C20.0025 54.3739 20.0751 54.377 20.1461 54.3834C20.2441 54.3928 20.3387 54.4081 20.4333 54.4244C20.4539 54.4281 20.4747 54.4317 20.4955 54.4352C20.5409 54.4429 20.5864 54.4507 20.6307 54.4611C20.7266 54.4832 20.819 54.5121 20.9111 54.5421C20.9331 54.5494 20.9555 54.5562 20.9778 54.563C21.0131 54.5737 21.0483 54.5844 21.0822 54.5973C21.1828 54.6357 21.2778 54.6819 21.3729 54.7292C21.3908 54.7382 21.4091 54.7465 21.4275 54.7547C21.452 54.7657 21.4766 54.7768 21.5002 54.7897C21.6331 54.8633 21.7608 54.9447 21.8816 55.0346C21.8878 55.0393 21.8936 55.0445 21.8994 55.0497C21.9065 55.0561 21.9136 55.0627 21.9212 55.0688C22.0265 55.1503 22.128 55.237 22.2234 55.3311C22.2468 55.3543 22.2684 55.3792 22.2901 55.4041C22.3032 55.4191 22.3162 55.4342 22.3297 55.4488C22.3967 55.5214 22.4638 55.5944 22.5253 55.6733C22.5531 55.7092 22.5788 55.747 22.6045 55.7848C22.6137 55.7985 22.623 55.8122 22.6324 55.8257C22.6853 55.9019 22.7377 55.9776 22.7855 56.0586C22.8173 56.1132 22.8467 56.17 22.8761 56.2268L22.881 56.2357C22.9231 56.3167 22.9644 56.3987 23.0018 56.4838C23.0301 56.5485 23.0555 56.6142 23.0809 56.6804C23.114 56.7677 23.1454 56.856 23.1729 56.9464C23.1948 57.0163 23.2146 57.0872 23.2331 57.1593C23.2568 57.2523 23.2774 57.348 23.2963 57.4442L23.298 57.4531C23.3116 57.5246 23.3251 57.5955 23.3355 57.6686C23.3505 57.769 23.3604 57.872 23.3694 57.9756C23.3706 57.9894 23.3719 58.0032 23.3732 58.017C23.3789 58.0797 23.3847 58.1421 23.3875 58.2063C23.3927 58.3162 23.3918 58.4287 23.3901 58.5422C23.3898 58.5661 23.3898 58.5899 23.3898 58.6137C23.3898 58.6653 23.3897 58.7168 23.3871 58.7693C23.3806 58.896 23.3668 59.0258 23.3527 59.1562C23.3497 59.1828 23.3473 59.2093 23.345 59.2358C23.3414 59.2752 23.3379 59.3147 23.3325 59.3549C23.3041 59.5541 23.2684 59.7549 23.2215 59.9599C23.114 59.7675 22.9992 59.5904 22.8822 59.4195C22.8551 59.3796 22.8272 59.3396 22.7992 59.3002C22.6818 59.1372 22.5614 58.9822 22.4367 58.8387C22.4305 58.8317 22.4242 58.8252 22.418 58.8187C22.4097 58.8102 22.4016 58.8017 22.3937 58.7924C22.2776 58.6626 22.1581 58.5406 22.0364 58.4266C22.0273 58.418 22.0183 58.4094 22.0092 58.4007C21.9881 58.3807 21.967 58.3605 21.9457 58.3414C21.8132 58.2216 21.6782 58.1096 21.541 58.0082C21.5294 57.9996 21.5179 57.9915 21.5065 57.9835C21.4942 57.9749 21.4819 57.9664 21.4697 57.9577C21.3463 57.8694 21.2215 57.7879 21.0951 57.7122C21.0835 57.7053 21.0719 57.6983 21.0602 57.6912C21.0426 57.6805 21.025 57.6698 21.0074 57.6597C20.8655 57.5787 20.7219 57.5046 20.5774 57.4389C20.5482 57.4258 20.5189 57.4137 20.4896 57.4011C20.3606 57.3459 20.2308 57.2949 20.1009 57.2507C20.0876 57.2462 20.0746 57.2414 20.0616 57.2367C20.0503 57.2326 20.039 57.2286 20.0274 57.225C19.8816 57.1771 19.7354 57.1372 19.5901 57.1035C19.573 57.0996 19.556 57.096 19.5391 57.0925C19.5241 57.0894 19.5091 57.0863 19.4942 57.083C19.36 57.0547 19.2267 57.031 19.0943 57.0131C19.0792 57.011 19.0637 57.0079 19.0483 57.0058C18.9042 56.9879 18.7623 56.9779 18.6222 56.9716C18.5903 56.97 18.5589 56.9695 18.5275 56.969C18.4011 56.9658 18.2764 56.9674 18.1543 56.9737C18.1486 56.9739 18.143 56.974 18.1373 56.9741C18.126 56.9744 18.1147 56.9746 18.1035 56.9753C17.9681 56.9832 17.837 56.9979 17.7083 57.0163C17.6918 57.0187 17.6755 57.0214 17.6593 57.0241C17.644 57.0267 17.6288 57.0292 17.6133 57.0315C17.511 57.0484 17.4116 57.0689 17.3144 57.0915C17.3052 57.0936 17.296 57.0956 17.2867 57.0976C17.2683 57.1015 17.2499 57.1055 17.2319 57.1104C17.115 57.1409 17.0014 57.1745 16.8935 57.2129C16.8806 57.217 16.8682 57.222 16.8557 57.2271C16.8492 57.2297 16.8426 57.2324 16.8359 57.235C16.7469 57.2681 16.6622 57.3038 16.5813 57.3417C16.5551 57.3543 16.5292 57.3664 16.5039 57.379C16.4101 57.4263 16.3199 57.4762 16.239 57.5298C17.0383 58.8119 17.8134 60.375 18.439 61.6367C18.5101 61.78 18.5792 61.9194 18.6462 62.054C19.5595 63.888 20.3796 65.8034 20.9975 67.8434C21.0787 67.7074 21.1603 67.5715 21.2419 67.4357C21.4037 67.1665 21.5653 66.8975 21.7233 66.6271C21.7567 66.57 21.7893 66.5128 21.822 66.4554C21.843 66.4188 21.8639 66.3821 21.885 66.3454C27.7177 56.1895 32.2921 45.5064 35.8676 34.481C36.0719 33.8499 36.2749 33.2184 36.4731 32.5856C36.4929 32.5221 36.5484 32.3667 36.6275 32.1912C36.7066 32.0161 36.9724 31.8839 37.0424 31.8632C38.3058 31.4906 40.0194 31.185 42.0267 30.9783C42.4915 30.9303 42.9714 30.8874 43.4659 30.8503C43.4876 30.8488 43.5093 30.8473 43.531 30.8457C43.5588 30.8437 43.5865 30.8417 43.6143 30.8398C44.0852 30.8075 44.5611 30.7855 45.0373 30.7636L45.1374 30.7589C45.232 30.7544 45.3259 30.7489 45.4199 30.7434C45.5364 30.7366 45.6529 30.7298 45.7703 30.7249C45.8039 30.724 45.8374 30.7224 45.871 30.7215C46.4218 30.703 46.9787 30.6971 47.5356 30.692C47.6283 30.6913 47.7204 30.6893 47.8125 30.6873C47.8862 30.6857 47.9599 30.6841 48.0339 30.6832C48.0675 30.6832 48.1006 30.6828 48.1345 30.6828C48.1511 30.6828 48.1674 30.6829 48.1838 30.683C48.2001 30.6831 48.2164 30.6832 48.233 30.6832C48.8462 30.6845 49.4555 30.6954 50.0606 30.7152C50.6488 30.7333 51.231 30.7623 51.812 30.796L51.8898 30.7998C53.0487 30.868 54.1878 30.9749 55.315 31.1021C55.7789 31.161 56.2155 31.2275 56.6381 31.2978L56.6376 31.2961C56.6827 31.3035 56.7262 31.3112 56.7698 31.3189C56.7936 31.3231 56.8175 31.3274 56.8417 31.3315L56.8594 31.3345C56.9845 31.3563 57.1102 31.378 57.2315 31.4005C57.42 31.4355 57.6031 31.4717 57.7825 31.5088C57.855 31.5238 57.9259 31.5391 57.9962 31.5546L58.0161 31.5589C58.2293 31.6052 58.4371 31.6527 58.6331 31.702C58.6626 31.7091 58.6911 31.7171 58.7196 31.7247C58.8678 31.7622 59.0095 31.8013 59.1465 31.8409C59.1588 31.8445 59.1719 31.848 59.185 31.8514C59.1992 31.8551 59.2133 31.8588 59.2265 31.8628C59.2284 31.8633 59.2318 31.8649 59.2349 31.8664C59.2368 31.8673 59.2387 31.8682 59.2399 31.8687C59.3167 31.8952 59.5277 32.0081 59.6185 32.1592C59.6448 32.2042 59.6652 32.248 59.6845 32.2914C59.7162 32.3659 59.742 32.432 59.7613 32.4859C59.7706 32.5141 59.778 32.5387 59.7839 32.5587C59.7869 32.5688 59.7896 32.5777 59.7919 32.5852C59.8242 32.6884 59.8811 32.8719 59.9445 33.0765L59.9686 33.1552C60.0937 33.5616 60.2377 34.0287 60.2812 34.1619C60.3161 34.2703 60.3515 34.3793 60.3864 34.4877C60.7295 35.5524 61.0786 36.6146 61.4411 37.673C61.4491 37.6721 61.4572 37.6717 61.4652 37.6713C64.8548 47.5201 69.0708 57.0778 74.3034 66.2097C74.3834 66.3485 74.4612 66.4878 74.5423 66.6266C75.3671 68.0379 76.2199 69.4377 77.1027 70.8196C77.3573 69.5339 77.7643 68.2871 78.3239 66.9935C79.3168 64.7595 81.2092 62.4467 82.7767 61.2167C82.5614 60.9349 82.2977 60.6674 81.9631 60.4361C81.935 60.4183 81.9018 60.397 81.8645 60.373C81.8358 60.3545 81.8046 60.3344 81.7714 60.3131C81.7048 60.2705 81.6291 60.2237 81.5448 60.1728L81.5121 60.1533C81.4256 60.1013 81.3295 60.0471 81.2258 59.9914L81.1931 59.9741C81.0798 59.9141 80.9579 59.8537 80.8269 59.7948C80.8242 59.7932 80.822 59.7922 80.8193 59.7911C80.6878 59.7323 80.5455 59.675 80.3962 59.6219C80.39 59.6196 80.3834 59.6175 80.3767 59.6153C80.3711 59.6135 80.3656 59.6117 80.3602 59.6098C80.2195 59.5604 80.0718 59.5157 79.9182 59.4773C79.9005 59.4726 79.8828 59.4684 79.8656 59.4642C79.711 59.4269 79.5504 59.3964 79.3839 59.3738C79.3757 59.3727 79.3675 59.3715 79.3593 59.3703C79.3514 59.3691 79.3435 59.368 79.3356 59.367C79.1579 59.3444 78.9742 59.3317 78.7846 59.3312C78.7814 59.3312 78.7781 59.331 78.7747 59.3308C78.773 59.3307 78.7713 59.3307 78.7696 59.3307C78.7632 59.3307 78.7567 59.3309 78.7501 59.3312C78.7434 59.3315 78.7366 59.3317 78.7299 59.3317C78.659 59.3323 78.5881 59.3344 78.5156 59.3386C78.4871 59.3401 78.4576 59.3438 78.4286 59.3459C78.3717 59.3507 78.3137 59.3554 78.2551 59.3627C78.232 59.3656 78.2086 59.369 78.1854 59.3723C78.1746 59.3739 78.1638 59.3754 78.1531 59.3769C78.0983 59.3848 78.0441 59.3932 77.9888 59.4038C77.9554 59.4095 77.9224 59.4162 77.8891 59.4229L77.8798 59.4248C77.8245 59.4363 77.7697 59.449 77.7144 59.4626C77.6773 59.4721 77.6403 59.4815 77.6038 59.4915C77.5696 59.501 77.5352 59.5112 77.5006 59.5219C77.4776 59.529 77.4545 59.5362 77.4314 59.5436C77.4119 59.5499 77.3922 59.5561 77.3726 59.5624C77.3565 59.5676 77.3405 59.5728 77.3245 59.5783C77.2606 59.6003 77.1956 59.6256 77.1312 59.6513C77.1202 59.6556 77.1091 59.6598 77.0979 59.664C77.0792 59.671 77.0604 59.6781 77.0415 59.686C76.947 59.726 76.852 59.7685 76.7558 59.8158L76.7188 59.8358C76.635 59.8779 76.5507 59.9226 76.4664 59.9709C76.453 59.9785 76.4395 59.9866 76.426 59.9948C76.406 60.007 76.3859 60.0196 76.366 60.0319C76.3021 60.0697 76.2382 60.1092 76.1737 60.1512C76.149 60.1677 76.1241 60.1848 76.0992 60.2018C76.0852 60.2115 76.0712 60.2211 76.0572 60.2306C75.9971 60.2716 75.9375 60.3142 75.8773 60.3588C75.836 60.3888 75.7957 60.4198 75.7549 60.4519C75.6953 60.4981 75.6357 60.546 75.5755 60.5959C75.5518 60.6158 75.5282 60.6357 75.5046 60.6557C75.4877 60.6702 75.4707 60.6847 75.4536 60.6995C75.3972 60.7483 75.3408 60.7999 75.2839 60.8519L75.2678 60.8671L75.2447 60.8882C75.2136 60.9165 75.1824 60.9455 75.1513 60.9754C75.089 61.0345 75.028 61.0971 74.9659 61.1607L74.9467 61.1804C74.9145 61.2146 74.8812 61.2472 74.8479 61.2824C74.7475 61.3896 74.6454 61.5016 74.5445 61.6204C74.2561 59.2187 75.1234 56.9974 77.164 56.4943C77.6784 56.3676 78.1671 56.3429 78.6284 56.396C78.6592 56.3993 78.6895 56.4044 78.7196 56.4098C78.7377 56.4129 78.7558 56.4162 78.7739 56.4192C78.8716 56.4339 78.9683 56.4496 79.0633 56.4717C79.1203 56.4849 79.175 56.5006 79.2303 56.5159C79.3152 56.539 79.4 56.5637 79.4833 56.5921C79.5397 56.6115 79.5955 56.6326 79.6519 56.6546C79.7308 56.6851 79.8092 56.7183 79.8866 56.7535C79.9408 56.7787 79.995 56.8039 80.0487 56.8307C80.125 56.8696 80.2007 56.9106 80.2754 56.9537L80.2856 56.9595L80.2974 56.9662C80.3406 56.9907 80.3834 57.015 80.4257 57.041C80.5047 57.0899 80.5809 57.1419 80.6577 57.1945C80.675 57.2066 80.6925 57.2184 80.7101 57.2303C80.7343 57.2467 80.7586 57.2631 80.7823 57.2802C80.8902 57.359 80.9955 57.441 81.098 57.5272C81.1115 57.5382 81.1254 57.5498 81.1388 57.5614C81.2403 57.6486 81.3397 57.738 81.4363 57.8305C81.4729 57.8657 81.5072 57.902 81.5427 57.9377L81.5583 57.953C81.6184 58.0134 81.6791 58.0744 81.7365 58.137C81.7619 58.1639 81.7865 58.1915 81.8109 58.219L81.8278 58.2379L81.8509 58.2636C81.9078 58.3278 81.9642 58.3924 82.019 58.4576C82.0523 58.4981 82.0851 58.538 82.1178 58.5785L82.1275 58.5911C82.1806 58.6573 82.2322 58.7236 82.2827 58.7903C82.2935 58.805 82.3045 58.8197 82.3154 58.8343C82.3374 58.8638 82.3594 58.8933 82.3809 58.9228C82.4314 58.9916 82.4797 59.061 82.527 59.1309C82.556 59.173 82.5855 59.2145 82.6129 59.2566C82.6634 59.3323 82.7112 59.408 82.7579 59.4831C82.7794 59.5178 82.803 59.5536 82.824 59.5882C82.89 59.6976 82.9539 59.8069 83.013 59.9136C82.8911 58.4876 82.3842 56.6341 80.7673 54.9989C80.618 54.848 80.4638 54.7113 80.3086 54.581C80.2711 54.55 80.2345 54.5184 80.1969 54.489C80.0434 54.3655 79.8876 54.2493 79.7303 54.1442C79.7216 54.1381 79.7127 54.1327 79.7038 54.1273C79.6974 54.1234 79.691 54.1195 79.6846 54.1153C79.5375 54.0186 79.3888 53.9308 79.2395 53.8488C79.222 53.8395 79.2047 53.8301 79.1875 53.8208C79.1667 53.8095 79.146 53.7982 79.1251 53.7873C78.9656 53.7037 78.8061 53.6264 78.6472 53.5581C78.6225 53.5476 78.5978 53.5381 78.5725 53.5281C78.4302 53.4687 78.2879 53.4151 78.1467 53.3662C78.1241 53.3587 78.1016 53.3507 78.0791 53.3429C78.0658 53.3383 78.0525 53.3338 78.0393 53.3294C77.8819 53.2779 77.7267 53.2327 77.5732 53.1928C77.5431 53.1854 77.5135 53.1791 77.4835 53.1717C77.3492 53.1386 77.2177 53.1102 77.0877 53.085C77.0716 53.0823 77.0555 53.0792 77.0395 53.076C77.0245 53.0731 77.0096 53.0702 76.9948 53.0677C76.8477 53.0409 76.7038 53.0193 76.5641 53.002C76.5333 52.9983 76.5036 52.9952 76.4738 52.9921L76.4728 52.992C76.3515 52.9773 76.2333 52.9667 76.1184 52.9583C76.1125 52.9578 76.1067 52.9573 76.1008 52.9567C76.083 52.955 76.0653 52.9533 76.0475 52.9526C75.9181 52.9447 75.7946 52.9389 75.6765 52.9368C75.6606 52.9362 75.6455 52.9359 75.6304 52.9357C75.6184 52.9356 75.6065 52.9354 75.5943 52.9352C75.4933 52.9342 75.3967 52.9347 75.3054 52.9363C75.2877 52.9363 75.2683 52.9363 75.2506 52.9368C75.147 52.9394 75.0509 52.9436 74.9617 52.9494C74.9526 52.9498 74.9437 52.9504 74.9349 52.951C74.923 52.9518 74.9112 52.9527 74.8989 52.9536C74.8275 52.9583 74.7603 52.9636 74.7002 52.9688L74.6895 52.9699L74.6594 52.9731C74.5912 52.9794 74.5316 52.9862 74.4822 52.992C74.4742 52.9932 74.4681 52.9941 74.462 52.9948C74.4579 52.9953 74.4537 52.9958 74.4489 52.9962C74.4091 53.0014 74.371 53.0067 74.3479 53.0098C74.3195 53.0141 74.3039 53.0151 74.3039 53.0151C74.4231 52.8301 74.552 52.6598 74.6857 52.4975L74.6893 52.493C74.7085 52.4687 74.7283 52.4438 74.7485 52.42C74.8774 52.2685 75.0138 52.1275 75.154 51.9957C75.1808 51.9704 75.2082 51.9456 75.2356 51.9211C75.38 51.7919 75.5283 51.6698 75.6824 51.5591C75.6918 51.5523 75.7013 51.546 75.7109 51.5397C75.7204 51.5334 75.7299 51.5271 75.7393 51.5204C75.894 51.4126 76.0513 51.3132 76.2124 51.2236C76.2195 51.2197 76.2262 51.2156 76.2328 51.2115C76.2397 51.2073 76.2466 51.203 76.2537 51.1992C76.4202 51.1087 76.5904 51.0287 76.7623 50.9558C76.7727 50.9514 76.7832 50.947 76.7937 50.9425C76.8133 50.9342 76.8329 50.9259 76.8525 50.9179C77.0211 50.8493 77.1924 50.7887 77.3648 50.7361C77.3831 50.7304 77.4015 50.7252 77.4198 50.72C77.4315 50.7167 77.4433 50.7134 77.455 50.71C77.6338 50.6586 77.8132 50.6131 77.9931 50.5773L78.0221 50.5723C78.1998 50.5378 78.3781 50.5117 78.5553 50.4915C78.5806 50.4889 78.6053 50.4851 78.63 50.4826C78.8056 50.4645 78.9806 50.454 79.1546 50.4485C79.1885 50.4472 79.2223 50.4464 79.2567 50.446C79.3941 50.4443 79.5311 50.4477 79.6664 50.4531C79.7201 50.4552 79.7749 50.4552 79.8286 50.4586C80.0074 50.4696 80.1841 50.486 80.3564 50.5095C80.3725 50.5117 80.3878 50.5144 80.4032 50.5171C80.4156 50.5194 80.428 50.5216 80.4408 50.5235C80.5847 50.5449 80.7264 50.5694 80.8644 50.5984C80.9214 50.6106 80.9761 50.6249 81.032 50.6384C81.1388 50.6637 81.2441 50.6901 81.3456 50.7201C81.4021 50.7367 81.4576 50.7546 81.5131 50.7724L81.5191 50.7744C81.6141 50.8055 81.707 50.8384 81.7972 50.8733L81.8031 50.8756C81.8547 50.8955 81.9057 50.915 81.9551 50.936C82.048 50.9752 82.1361 51.0173 82.222 51.0602C82.2376 51.0681 82.2534 51.0759 82.2693 51.0836C82.2949 51.0962 82.3204 51.1087 82.345 51.1217C82.4663 51.1878 82.5812 51.2564 82.6854 51.3288C84.6938 52.7297 84.7926 54.6225 84.7244 55.7616C84.6621 56.8024 84.3507 58.424 84.0263 59.8521C84.4822 58.7535 85.1401 57.471 86.1007 56.3939C86.9079 55.4893 88.3057 54.6194 89.5515 54.5763C89.6651 54.5726 89.7734 54.5742 89.8821 54.5757L89.8829 54.5757C89.9543 54.5773 90.0241 54.5799 90.0928 54.5831C90.1616 54.5863 90.2292 54.591 90.2958 54.5968C90.3635 54.6025 90.4306 54.6094 90.4961 54.6173C90.56 54.6246 90.6228 54.6336 90.6857 54.6435C90.7496 54.6541 90.8135 54.6651 90.8763 54.6777C90.9354 54.6898 90.9939 54.7024 91.0519 54.7161C91.1142 54.7308 91.1749 54.746 91.2345 54.7629C91.2893 54.7786 91.3435 54.7949 91.3972 54.8123C91.431 54.823 91.4649 54.8342 91.4985 54.8458C91.5226 54.8541 91.5465 54.8626 91.5701 54.8711C91.6217 54.8895 91.6716 54.91 91.721 54.93C91.7769 54.9521 91.8316 54.9757 91.8853 55.0005C91.9321 55.022 91.9788 55.0451 92.0244 55.0683C92.077 55.0945 92.1286 55.1219 92.1796 55.1503C92.2151 55.1697 92.2488 55.1899 92.2827 55.2102C92.2909 55.2151 92.2992 55.22 92.3074 55.2249C92.3365 55.2427 92.3654 55.2604 92.3939 55.2785C92.4144 55.2914 92.4346 55.3046 92.4546 55.3179C92.4938 55.3442 92.5324 55.3716 92.5711 55.3994C92.6178 55.4331 92.6645 55.4672 92.7091 55.5019C92.731 55.5192 92.7523 55.5368 92.7735 55.5544C92.7876 55.5661 92.8018 55.5779 92.816 55.5897C92.8605 55.6265 92.9035 55.6633 92.9459 55.7017C92.9792 55.7321 93.0114 55.7632 93.0436 55.7942C93.0845 55.8341 93.1253 55.8741 93.1645 55.9145C93.194 55.9461 93.2241 55.9787 93.2531 56.0113C93.2912 56.0538 93.3288 56.0964 93.3653 56.1395C93.3932 56.1726 93.4195 56.2063 93.4459 56.2399C93.4813 56.2846 93.5162 56.3298 93.5495 56.3755C93.5747 56.4092 93.5984 56.4439 93.622 56.4791C93.6548 56.5253 93.687 56.5716 93.7176 56.6189C93.7369 56.6489 93.7552 56.6788 93.7734 56.7088L93.7831 56.7251L93.7834 56.7257C93.8129 56.7738 93.8423 56.822 93.8701 56.8707C93.89 56.9064 93.9093 56.9422 93.9286 56.9779L93.9361 56.9921C93.9414 57.002 93.9468 57.0119 93.9521 57.0219C93.9711 57.0572 93.9901 57.0926 94.0081 57.1283C94.0258 57.164 94.043 57.2003 94.0597 57.236C94.0736 57.2648 94.0872 57.2936 94.1006 57.3226C94.1109 57.345 94.121 57.3674 94.1311 57.39C94.1466 57.4263 94.1617 57.4626 94.1767 57.4983C94.1819 57.5109 94.1872 57.5235 94.1924 57.5361C94.2088 57.5754 94.225 57.6145 94.2401 57.6539C94.2546 57.6902 94.2675 57.727 94.2809 57.7627C94.2868 57.7793 94.2929 57.7959 94.2988 57.8124C94.3118 57.848 94.3246 57.8834 94.3367 57.9193C94.3458 57.9449 94.3538 57.9704 94.3619 57.9961C94.3653 58.0069 94.3687 58.0178 94.3722 58.0287L94.3759 58.0402C94.3915 58.0886 94.4071 58.1364 94.4205 58.1843C94.4313 58.2216 94.4415 58.2579 94.4517 58.2946C94.4662 58.3451 94.4801 58.3956 94.493 58.446C94.4973 58.4632 94.5014 58.4803 94.5054 58.4974C94.5103 58.5187 94.5151 58.5399 94.5199 58.5611L94.5252 58.5816C94.5296 58.6002 94.5341 58.6188 94.5385 58.6374C94.5438 58.6601 94.549 58.6827 94.5537 58.7052C94.5604 58.735 94.5661 58.7645 94.5718 58.7942C94.5735 58.8027 94.5751 58.8112 94.5768 58.8198C94.5864 58.8665 94.5956 58.9133 94.6042 58.9596C94.6074 58.9769 94.6102 58.9939 94.613 59.0109C94.6163 59.0311 94.6195 59.0513 94.623 59.0715C94.6251 59.0848 94.6274 59.098 94.6296 59.1111C94.635 59.1434 94.6404 59.1754 94.645 59.2072C94.6488 59.2328 94.652 59.2579 94.6551 59.2828C94.6567 59.2961 94.6583 59.3094 94.66 59.3228C94.6654 59.3638 94.6713 59.4059 94.6756 59.4463C94.6786 59.4735 94.6813 59.4999 94.6838 59.5262C94.6849 59.5376 94.6859 59.549 94.6869 59.5604C94.6889 59.5813 94.691 59.6022 94.6931 59.623C94.6949 59.6413 94.6966 59.6596 94.6981 59.6776C94.7014 59.7149 94.7035 59.7507 94.7057 59.7875C94.7065 59.802 94.7076 59.8167 94.7086 59.8313C94.7101 59.8531 94.7117 59.8749 94.7126 59.8963C94.7143 59.9352 94.7153 59.9725 94.7164 60.0098C94.7169 60.0252 94.7176 60.0406 94.7182 60.056C94.7188 60.0716 94.7194 60.0872 94.7196 60.1023C94.7207 60.1428 94.7196 60.1806 94.7196 60.2195C94.7196 60.2324 94.7198 60.2457 94.7198 60.2588C94.7197 60.2709 94.7196 60.2828 94.7191 60.2942C94.7186 60.3331 94.7169 60.3694 94.7153 60.4056C94.7149 60.4143 94.7146 60.4233 94.7144 60.4323C94.714 60.4456 94.7136 60.459 94.7126 60.4719C94.71 60.5118 94.7073 60.5486 94.7035 60.5859L94.7003 60.6306C94.6949 60.6811 94.6896 60.7273 94.6826 60.7715C93.3589 59.3738 91.8907 58.9228 91.0036 58.701C90.966 58.691 90.9214 58.682 90.8731 58.6726C90.8575 58.67 90.8403 58.6668 90.8237 58.6636C90.7882 58.6573 90.7501 58.651 90.7098 58.6447C90.6889 58.6421 90.669 58.6384 90.647 58.6358C90.6008 58.6295 90.552 58.6232 90.5015 58.6169L90.4489 58.6106C90.3785 58.6032 90.3039 58.5958 90.226 58.5901C90.2126 58.589 90.1981 58.588 90.1846 58.5874H90.1804C90.1159 58.5832 90.0493 58.579 89.9811 58.5753C89.9692 58.5751 89.9573 58.5746 89.9455 58.5742C89.9312 58.5736 89.9168 58.573 89.9022 58.5727C89.8388 58.5701 89.7738 58.5685 89.7078 58.5675C89.6809 58.5669 89.6541 58.5664 89.6272 58.5664C89.5848 58.5664 89.5413 58.5669 89.4984 58.5675C89.421 58.5685 89.3437 58.5701 89.2637 58.5727L89.1284 58.579C89.0489 58.5837 88.9689 58.5895 88.8878 58.5964C88.8432 58.6 88.7986 58.6037 88.753 58.6085C88.6569 58.6179 88.5608 58.6305 88.463 58.6447C88.4552 58.6457 88.4474 58.6466 88.4395 58.6476C88.4176 58.6502 88.3956 58.6528 88.3739 58.6563C88.2471 58.6757 88.1209 58.6994 87.9942 58.7267C87.962 58.7336 87.9308 58.7425 87.8992 58.7504C87.8052 58.7725 87.7107 58.7966 87.6172 58.824C87.5732 58.8366 87.5308 58.8508 87.4878 58.8644C87.4057 58.8907 87.3246 58.9196 87.244 58.9501C87.2 58.9669 87.1565 58.9843 87.113 59.0022C87.0308 59.0369 86.9508 59.0747 86.8713 59.1141C86.8348 59.1325 86.7978 59.1499 86.7618 59.1688C86.649 59.2303 86.5389 59.296 86.4342 59.3691C85.8441 59.6813 85.2577 60.2001 84.7207 60.7825C84.8635 60.7263 85.0096 60.6726 85.1583 60.6217C85.1905 60.6102 85.2232 60.5999 85.2558 60.5895C85.277 60.5828 85.2983 60.5761 85.3194 60.5691C85.4166 60.5376 85.5122 60.5055 85.611 60.4761C85.6744 60.4571 85.7383 60.4403 85.8027 60.4224L85.8467 60.4098L85.8652 60.4047C85.9347 60.3854 86.0038 60.3662 86.0734 60.3483C86.1143 60.3377 86.1552 60.3282 86.1963 60.3187C86.222 60.3127 86.2478 60.3068 86.2737 60.3005C86.3617 60.2795 86.4509 60.2584 86.5389 60.24C86.5947 60.2284 86.6497 60.2182 86.7049 60.208L86.7419 60.2011L86.7511 60.199C86.8348 60.1833 86.9181 60.1675 87.0008 60.1544C87.0582 60.1444 87.1151 60.1365 87.1721 60.1286L87.2016 60.1249C87.2864 60.1128 87.3713 60.1013 87.454 60.0923C87.506 60.0865 87.5573 60.082 87.6085 60.0775C87.6218 60.0763 87.6351 60.0751 87.6484 60.0739C87.73 60.0671 87.8111 60.0613 87.8906 60.0571C87.9545 60.0534 88.0157 60.0519 88.0775 60.0508L88.078 60.0508C88.1874 60.0487 88.2962 60.0466 88.3997 60.0503C92.1152 60.1912 94.6101 63.6678 91.8966 67.6563C91.6748 65.6247 90.2491 62.7957 87.0856 62.1239C86.939 62.0935 86.7951 62.0661 86.6533 62.043C86.6359 62.0404 86.6187 62.0383 86.6015 62.0362C86.5843 62.0341 86.5671 62.032 86.5497 62.0293C86.4434 62.013 86.337 61.9978 86.2323 61.9862C86.2098 61.9839 86.1875 61.9824 86.1654 61.9809C86.1474 61.9796 86.1295 61.9784 86.1115 61.9768L86.1056 61.9762C86.0089 61.9668 85.9133 61.9578 85.8177 61.9531C85.7907 61.9515 85.7636 61.9511 85.7365 61.9506C85.7185 61.9504 85.7005 61.9501 85.6824 61.9494C85.5928 61.9458 85.5031 61.9426 85.4128 61.9426C85.1411 61.9431 84.8689 61.9584 84.5912 61.9868L84.5746 61.9878C84.2916 62.0178 84.0021 62.0619 83.7014 62.1197C83.2348 62.596 82.9346 63.0438 82.5163 63.6867C81.8165 64.7621 80.7071 67.384 80.364 70.3697C80.1926 71.8599 80.2646 73.8599 80.4955 75.7885C81.9991 77.8296 83.5908 79.8055 85.2926 81.692C80.4252 81.2836 75.111 80.9524 69.4585 80.7143C71.3359 79.5153 72.6376 78.3957 72.6376 77.5872C72.6381 77.1652 71.8933 76.8587 70.6909 76.6742C70.6195 76.6632 70.5374 76.6532 70.4504 76.6432C70.4246 76.6406 70.3972 76.6379 70.3698 76.6353C70.3011 76.6285 70.228 76.6217 70.1507 76.6159C70.1389 76.615 70.1272 76.6141 70.1155 76.6132C70.0978 76.6118 70.08 76.6103 70.0616 76.609C69.9585 76.6017 69.8495 76.5948 69.7329 76.5891C69.727 76.5885 69.7222 76.588 69.7163 76.588C69.5912 76.5817 69.4564 76.577 69.3162 76.5722L69.2174 76.5696C69.1046 76.5665 68.9876 76.5638 68.8657 76.5617C68.8265 76.5607 68.7873 76.5601 68.7465 76.5596C68.6041 76.5575 68.457 76.5559 68.304 76.5559H68.2578C68.0822 76.5559 67.8985 76.557 67.71 76.5591L67.6016 76.5607C67.4618 76.5626 67.3194 76.5654 67.1732 76.5682L67.1279 76.5691C67.0732 76.5707 67.0168 76.5722 66.9604 76.5733C66.8111 76.577 66.6575 76.5812 66.5018 76.5864C66.4481 76.588 66.3949 76.5896 66.3412 76.5917L66.3197 76.5922C66.1458 76.5985 65.9685 76.6048 65.787 76.6132L65.736 76.6148L65.6598 76.618C65.431 76.628 65.1963 76.6395 64.9563 76.6527C64.9398 76.6534 64.9234 76.6543 64.9069 76.6553C64.8987 76.6558 64.8904 76.6563 64.8822 76.6569C64.6706 76.6679 64.4547 76.6805 64.2356 76.6947C64.2077 76.6965 64.1795 76.6983 64.1512 76.7001C64.1126 76.7026 64.0738 76.7051 64.0353 76.7079C63.8506 76.7194 63.6637 76.732 63.4736 76.7462C63.3995 76.7515 63.3249 76.7567 63.2486 76.7625C63.0515 76.7772 62.8518 76.793 62.6493 76.8093C62.5854 76.8146 62.5221 76.8193 62.4576 76.8245C61.9238 76.8692 61.3729 76.9202 60.808 76.978C60.7601 76.9828 60.7116 76.9881 60.6629 76.9933C60.6368 76.9961 60.6106 76.9989 60.5846 77.0017C60.3751 77.0232 60.1646 77.0464 59.952 77.07L59.6824 77.1C59.4719 77.1242 59.2598 77.1494 59.0466 77.1757C58.9639 77.1857 58.8812 77.1951 58.7985 77.2056C58.5171 77.2403 58.2346 77.2766 57.949 77.315L57.9092 77.3197C57.6063 77.3607 57.3003 77.4038 56.9926 77.448C56.9567 77.4532 56.9206 77.4586 56.8846 77.464C56.8449 77.4699 56.8053 77.4758 56.7659 77.4816L56.7236 77.4879C56.5084 77.52 56.2926 77.5521 56.0754 77.5857L56.0104 77.5962C55.9325 77.6083 55.8541 77.6204 55.7762 77.633C55.5593 77.6677 55.3413 77.7029 55.1233 77.7392C55.0577 77.75 54.9923 77.7609 54.9269 77.772C54.8943 77.7775 54.8616 77.783 54.829 77.7886C54.576 77.8312 54.322 77.8758 54.067 77.9216C54.0213 77.93 53.9768 77.9379 53.9311 77.9457L53.8887 77.9531C53.5733 78.0104 53.2559 78.0703 52.9382 78.1313C52.9033 78.1381 52.8684 78.1452 52.8336 78.1522C52.801 78.1588 52.7685 78.1654 52.7361 78.1718C52.4871 78.2201 52.2381 78.2706 51.9887 78.3221C51.9186 78.3365 51.8483 78.3514 51.778 78.3663C51.7458 78.3731 51.7135 78.38 51.6813 78.3868C51.4624 78.4325 51.2431 78.4803 51.0233 78.5287C50.9158 78.5523 50.8088 78.5755 50.7013 78.6002C50.4669 78.6527 50.2326 78.7069 49.9982 78.7621C49.914 78.7826 49.8288 78.802 49.7441 78.822C49.4263 78.8982 49.1081 78.9765 48.7912 79.0575C48.7677 79.0635 48.7442 79.0696 48.7207 79.0757C48.6969 79.082 48.6731 79.0882 48.6493 79.0943C48.3809 79.1637 48.1135 79.2336 47.8464 79.3061C47.7943 79.3204 47.742 79.3349 47.6898 79.3493C47.6403 79.363 47.5909 79.3767 47.5416 79.3902C47.3257 79.4501 47.1094 79.5111 46.8944 79.5731C46.8494 79.5862 46.8046 79.5992 46.7598 79.6122C46.695 79.6311 46.6303 79.6498 46.5654 79.6688C46.3478 79.7334 46.1307 79.7991 45.9144 79.8654C45.8402 79.8883 45.7662 79.9108 45.6923 79.9336C45.6694 79.9406 45.6465 79.9477 45.6237 79.9547C45.3441 80.0425 45.0649 80.1319 44.7873 80.2239V80.1918C46.1668 79.2157 46.6782 78.781 47.5158 77.9773C47.997 77.5152 48.3698 77.019 48.626 76.588C49.0453 75.8836 49.1081 75.3091 48.5616 75.0778C48.4755 75.0416 48.3805 75.0079 48.2808 74.9748C48.2498 74.9648 48.2167 74.9554 48.1849 74.9459C48.1096 74.9233 48.0309 74.9012 47.9488 74.8807C47.9122 74.8713 47.8761 74.8623 47.8383 74.8534C47.7355 74.8292 47.6276 74.8071 47.514 74.7861C47.4964 74.783 47.481 74.7793 47.4629 74.7756C47.3313 74.7519 47.1915 74.7309 47.0466 74.712C47.0045 74.7057 46.9598 74.7015 46.9164 74.6957C46.8058 74.6826 46.6923 74.6694 46.5749 74.6584L46.4231 74.6442C46.2868 74.6331 46.1453 74.6232 45.9995 74.6142C45.9846 74.6132 45.97 74.6122 45.9555 74.6112C45.9404 74.6102 45.9252 74.6093 45.9097 74.6084C45.7312 74.5985 45.5446 74.5911 45.3524 74.5858C45.3107 74.5848 45.2664 74.5837 45.2236 74.5832H45.2131C45.0613 74.5795 44.9056 74.5774 44.7456 74.5769H44.5629C44.384 74.5774 44.1999 74.5801 44.0112 74.5837C43.9742 74.5848 43.9385 74.5848 43.9007 74.5853C43.6719 74.5916 43.4358 74.5995 43.1938 74.61L43.0321 74.6179C42.8385 74.6274 42.6403 74.6379 42.4378 74.6505C42.366 74.6547 42.2942 74.6589 42.2215 74.6642C41.997 74.6794 41.7682 74.6957 41.5339 74.7141C41.4965 74.7173 41.4608 74.7199 41.4234 74.7225C41.1494 74.7451 40.8683 74.7709 40.581 74.7982C40.5152 74.805 40.4473 74.8113 40.3806 74.8182C40.1527 74.8408 39.9209 74.8655 39.6844 74.8918C39.6023 74.9007 39.5193 74.9102 39.4359 74.9191C39.1637 74.9506 38.8863 74.9837 38.6034 75.019C38.5884 75.0206 38.5738 75.0224 38.5592 75.0242C38.5416 75.0265 38.5241 75.0288 38.5062 75.0311C38.1876 75.0715 37.8612 75.1152 37.5296 75.1614C37.4505 75.1725 37.3701 75.184 37.2905 75.1956C37.0296 75.2324 36.7647 75.2718 36.4955 75.3123C36.4688 75.3163 36.4422 75.3204 36.4155 75.3244C36.349 75.3344 36.2822 75.3444 36.2147 75.3549C35.89 75.4053 35.5611 75.4574 35.2257 75.5126L35.1577 75.5236C34.7974 75.583 34.4289 75.6466 34.0556 75.7118L33.9767 75.7257C33.9049 75.7385 33.8326 75.7513 33.7606 75.7643C33.4734 75.8158 33.1831 75.8684 32.8886 75.9231C32.8073 75.9383 32.7262 75.9536 32.6445 75.9683L32.5652 75.983C32.1949 76.0529 31.8196 76.1249 31.4373 76.2006C31.4184 76.2048 31.4007 76.208 31.3818 76.2117C30.9819 76.291 30.5747 76.3741 30.1623 76.4598C30.0479 76.4834 29.9322 76.5076 29.817 76.5323C29.5044 76.598 29.1879 76.6653 28.8684 76.7347C28.7445 76.7609 28.6216 76.7878 28.4973 76.8151Z" fill="#EEDB5F"/>
</svg>
