<svg width="256" height="256" viewBox="0 0 256 256" fill="none" xmlns="http://www.w3.org/2000/svg">
<path d="M173.523 171.273C172.496 172.329 171.386 173.449 170.585 174.502C169.831 175.499 169.379 176.416 169.619 177.072C169.921 177.883 171.224 178.325 172.844 178.598C181.868 179.457 190.407 180.318 192.731 180.501C191.89 188.409 187.915 208.687 184.651 226.221C184.507 227.33 184.55 228.228 184.971 228.526C185.082 228.605 185.215 228.625 185.358 228.613C185.402 228.61 185.448 228.594 185.498 228.58C185.603 228.554 185.714 228.515 185.832 228.45C185.89 228.419 185.947 228.386 186.008 228.346C186.131 228.267 186.256 228.169 186.389 228.059C186.446 228.011 186.5 227.969 186.565 227.915C186.752 227.744 186.949 227.558 187.15 227.341C188.285 226.161 189.639 224.391 190.842 222.915L206.689 203.927L230.802 175C230.96 174.801 231.157 174.589 231.308 174.375C232.044 173.494 232.738 172.658 233.409 171.861C234.889 170.015 236.02 168.247 235.696 167.079C235.513 166.358 234.443 165.975 233.204 165.724C227.268 164.891 220.65 163.956 213.932 163.174C214.564 157.433 216.172 147.099 217.799 136.744L218.589 131.089C218.718 130.303 218.905 129.388 219.06 128.453C219.318 127.17 219.548 125.85 219.648 124.777C219.71 123.791 219.688 123.026 219.404 122.705C219.347 122.634 219.307 122.578 219.221 122.547C219.139 122.519 219.027 122.544 218.92 122.564C218.858 122.575 218.805 122.584 218.74 122.609C218.643 122.646 218.539 122.702 218.435 122.764C218.363 122.806 218.298 122.834 218.223 122.885C218.101 122.967 217.968 123.071 217.831 123.178C217.763 123.234 217.699 123.279 217.627 123.338C217.415 123.516 217.196 123.713 216.97 123.93C215.58 125.264 213.878 127.246 212.678 128.547L202.078 140.134L197.456 145.196L174.952 169.786C174.528 170.243 174.043 170.75 173.523 171.273Z" fill="url(#paint0_linear_7645_11)"/>
<path d="M84.1855 122.69C83.1761 124.19 82.4199 125.542 82.5061 126.152C82.5176 126.226 82.5466 126.291 82.5811 126.352L82.5836 126.358C82.6213 126.434 82.6644 126.496 82.742 126.555C82.8569 126.659 83.0181 126.744 83.2135 126.814C83.6132 126.932 86.5003 126.831 87.3542 126.763C89.6574 126.575 91.9549 126.414 94.2812 126.285C94.9397 126.248 95.5955 126.226 96.2741 126.192C99.2758 126.046 102.264 125.93 105.22 125.862C107.584 125.803 109.918 125.767 112.219 125.744C112.854 125.739 113.472 125.736 114.096 125.733C116.224 125.722 118.335 125.716 120.345 125.736C119.658 142.948 118.821 161.197 118.108 178.572C118.007 181.255 117.886 183.915 117.792 186.545C117.57 192.147 117.57 192.147 117.57 192.147C117.558 192.544 117.538 192.963 117.524 193.38C117.461 195.902 117.46 198.684 118.013 199.439C118.027 199.475 118.053 199.506 118.079 199.534C118.176 199.627 118.289 199.669 118.41 199.666C118.418 199.666 118.43 199.661 118.438 199.661C118.547 199.655 118.668 199.616 118.795 199.545C118.838 199.523 118.881 199.486 118.924 199.455C119.022 199.39 119.123 199.317 119.226 199.224C119.281 199.177 119.336 199.118 119.393 199.064C119.494 198.965 119.594 198.861 119.698 198.743C119.758 198.673 119.822 198.599 119.885 198.524C119.985 198.402 120.086 198.276 120.187 198.143C120.253 198.056 120.322 197.966 120.391 197.876C120.492 197.741 120.592 197.597 120.693 197.456C120.762 197.358 120.831 197.262 120.9 197.164C121.003 197.015 121.104 196.862 121.205 196.708C121.271 196.609 121.34 196.511 121.403 196.412C121.561 196.176 121.716 195.939 121.866 195.708C121.866 195.708 121.866 195.708 124.411 191.894C140.427 167.902 161.282 138.652 179.797 113.405C185.294 105.894 186.239 104.627 186.239 104.627C186.35 104.495 186.458 104.349 186.569 104.214C188.954 101.058 191.973 97.6596 193.191 95.2839C193.539 94.5911 193.769 93.9689 193.729 93.4765C193.712 93.2427 193.589 93.0624 193.396 92.9162C193.327 92.8627 193.209 92.8402 193.123 92.7977C192.961 92.719 192.817 92.6346 192.606 92.584C192.465 92.5474 192.293 92.5362 192.135 92.5109C191.938 92.4796 191.751 92.443 191.535 92.4262C191.341 92.4121 191.133 92.4121 190.929 92.4065C190.72 92.4009 190.508 92.3868 190.297 92.3868C189.55 92.3952 188.835 92.4318 188.357 92.4487C188.357 92.4487 188.357 92.4487 184.72 92.6037C174.155 93.0483 163.332 93.6142 153.031 94.3039C153.807 76.5511 154.79 56.1887 155.607 38.6274C155.817 33.7515 155.817 33.7515 155.817 33.7515C155.823 33.6163 155.828 33.4587 155.834 33.3151C155.923 31.4514 155.998 28.9431 155.409 28.2111C155.308 28.1013 155.201 28.0169 155.072 28.0028C154.995 27.9915 154.899 28.0169 154.81 28.0366C154.747 28.0478 154.684 28.0535 154.615 28.0816C154.537 28.1126 154.448 28.1604 154.365 28.2083C154.293 28.2477 154.221 28.2815 154.143 28.3322C154.054 28.3913 153.959 28.4701 153.862 28.5433C153.781 28.608 153.697 28.6644 153.611 28.7404C153.514 28.8248 153.41 28.929 153.307 29.0275C153.217 29.112 153.128 29.1908 153.039 29.2837C152.924 29.3991 152.806 29.5286 152.688 29.6525C152.602 29.7482 152.513 29.8327 152.424 29.934C152.294 30.0804 152.159 30.2381 152.024 30.3957C151.944 30.4914 151.86 30.5815 151.78 30.6801C151.601 30.8884 151.426 31.108 151.248 31.3275C151.202 31.381 151.162 31.4317 151.118 31.4852C150.891 31.7667 150.664 32.0539 150.437 32.3467C149.83 33.1237 149.212 33.9316 148.625 34.6861C148.625 34.6861 148.625 34.6861 144.361 40.3531C143.944 40.9218 143.484 41.5299 143.032 42.1155C131.073 58.0721 108.555 89.0423 108.555 89.0423C107.471 90.5204 106.447 91.9253 105.456 93.2596C104.668 94.3489 103.891 95.4357 103.098 96.5253C102.402 97.4881 92.9931 110.469 90.9513 113.301C87.4174 118.205 87.4174 118.205 87.4174 118.205C86.5204 119.444 85.2205 121.15 84.1855 122.69Z" fill="url(#paint1_linear_7645_11)"/>
<path d="M46.661 220.855C46.7185 221.736 46.7587 222.389 46.7903 222.879C46.8654 224.363 46.8654 224.363 46.8654 224.363C46.8826 224.61 46.9027 224.867 46.9199 225.131C47.0262 226.767 47.2015 228.58 47.6302 228.935L47.6389 228.94C47.6992 228.988 47.7653 229.002 47.8342 229C47.9549 228.994 48.0874 228.909 48.2281 228.777C48.2511 228.757 48.2741 228.738 48.2942 228.715C48.4353 228.569 48.5818 228.38 48.7287 228.155C48.7546 228.118 48.7804 228.079 48.8005 228.043C48.9557 227.806 49.1083 227.547 49.2605 227.274C49.2778 227.243 49.2979 227.209 49.3151 227.178C49.4731 226.894 49.6257 226.607 49.7722 226.331C49.7722 226.331 49.7722 226.331 51.121 223.806C59.6524 207.919 70.8928 188.474 80.908 171.659C83.8756 166.654 84.3962 165.806 84.3962 165.806C84.4422 165.716 84.5083 165.623 84.5686 165.53C85.8686 163.425 87.5534 161.13 88.1459 159.579C88.3241 159.129 88.4361 158.723 88.3757 158.43C88.3643 158.36 88.3355 158.301 88.3125 158.256C88.0307 157.845 87.0647 157.856 86.1849 157.941C86.107 157.949 86.0438 157.958 85.9662 157.966C85.578 158.011 85.2243 158.064 84.9773 158.093C84.9773 158.093 84.9769 158.093 82.7196 158.402C76.1521 159.286 69.4381 160.269 63.066 161.296C62.4734 150.185 61.8436 137.426 61.2859 126.427C61.1333 123.381 61.1333 123.381 61.1333 123.381C61.1276 123.294 61.1189 123.201 61.1132 123.102C61.0644 122.032 60.9638 120.619 60.6302 120.067C60.5354 119.93 60.4402 119.839 60.3225 119.834C60.2305 119.831 60.1128 119.916 60.0036 119.972C59.9285 120.011 59.8625 120.011 59.7792 120.076C59.6642 120.166 59.5346 120.318 59.4111 120.45C59.3188 120.549 59.2326 120.616 59.1378 120.732C59.0172 120.878 58.8875 121.064 58.764 121.233C58.652 121.385 58.5424 121.517 58.4275 121.686C58.1859 122.038 57.9388 122.418 57.6914 122.809C57.3664 123.333 57.0217 123.868 56.7082 124.378C56.7082 124.378 56.7082 124.378 54.3963 128.155C54.1604 128.536 53.9101 128.938 53.6717 129.332C47.1814 139.971 34.998 160.595 34.998 160.595C34.4202 161.575 33.8593 162.518 33.3303 163.399C32.9105 164.126 32.4875 164.849 32.0562 165.57C31.6738 166.217 26.6073 174.854 25.5031 176.741C23.5996 180.006 23.5995 180.006 23.5995 180.006C23.1051 180.831 22.3977 181.968 21.8428 182.993C21.3078 183.99 20.911 184.868 21.0173 185.251C21.0345 185.31 21.0636 185.364 21.0952 185.409C21.19 185.507 21.3193 185.58 21.4949 185.62C21.5466 185.631 21.6902 185.623 21.8396 185.614C21.906 185.611 21.9606 185.609 22.0382 185.603C22.1851 185.592 22.346 185.575 22.5183 185.555C22.5991 185.547 22.6709 185.541 22.7542 185.53C22.9352 185.507 23.1108 185.485 23.2861 185.462C23.3608 185.454 23.4387 185.442 23.5105 185.434C23.7374 185.403 23.9389 185.372 24.0653 185.349C25.4916 185.102 26.9237 184.863 28.3558 184.651C28.7727 184.584 29.1867 184.539 29.5921 184.477C31.4497 184.209 33.3102 183.967 35.1477 183.751C38.4169 183.359 41.6118 183.038 44.5822 182.791C45.2864 195.228 45.9565 208.527 46.661 220.855Z" fill="url(#paint2_linear_7645_11)"/>
<defs>
<linearGradient id="paint0_linear_7645_11" x1="175.358" y1="130.656" x2="239.085" y2="134.882" gradientUnits="userSpaceOnUse">
<stop stop-color="#EEDB5F"/>
<stop offset="0.0001" stop-color="#EEDB5F"/>
<stop offset="1" stop-color="#EEC65F"/>
</linearGradient>
<linearGradient id="paint1_linear_7645_11" x1="92.2512" y1="41.1425" x2="199.298" y2="48.5142" gradientUnits="userSpaceOnUse">
<stop stop-color="#EEDB5F"/>
<stop offset="0.0001" stop-color="#EEDB5F"/>
<stop offset="1" stop-color="#EEC65F"/>
</linearGradient>
<linearGradient id="paint2_linear_7645_11" x1="26.9082" y1="128.191" x2="91.7912" y2="132.448" gradientUnits="userSpaceOnUse">
<stop stop-color="#EEDB5F"/>
<stop offset="0.0001" stop-color="#EEDB5F"/>
<stop offset="1" stop-color="#EEC65F"/>
</linearGradient>
</defs>
</svg>
