<svg width="46" height="69" viewBox="0 0 46 69" fill="none" xmlns="http://www.w3.org/2000/svg">
<path d="M3.30708 39.006C2.97497 39.6009 2.73192 40.1326 2.77468 40.3624C2.7899 40.3892 2.79165 40.4138 2.80656 40.4362L2.80671 40.4384C2.82201 40.4663 2.85028 40.4879 2.87841 40.5085C2.92102 40.5452 2.97623 40.5735 3.05778 40.5946C3.20702 40.6293 4.26703 40.5164 4.584 40.4685C5.42902 40.3376 6.28797 40.2164 7.13454 40.1078C7.38593 40.0764 7.62448 40.0512 7.87592 40.0206C8.98768 39.8871 10.087 39.7663 11.1743 39.6645C12.0493 39.5808 12.9115 39.5066 13.761 39.4387C13.9999 39.4198 14.2256 39.4028 14.4646 39.3851C15.2479 39.326 16.0314 39.2691 16.7756 39.2245C16.9796 45.7675 17.1444 52.7077 17.3394 59.3134C17.384 60.3323 17.4016 61.3446 17.4447 62.3433C17.5003 64.4736 17.5002 64.4736 17.5002 64.4736C17.5107 64.6241 17.5085 64.7841 17.5196 64.9421C17.5599 65.9002 17.6335 66.9546 17.866 67.2258C17.8669 67.2396 17.8811 67.2504 17.8951 67.2602C17.9241 67.2936 17.9652 67.3069 18.0183 67.3021C18.0183 67.3021 18.0181 67.2998 18.0314 67.2989C18.0711 67.294 18.11 67.2763 18.1613 67.2459C18.174 67.2365 18.186 67.2216 18.1985 67.209C18.2366 67.1816 18.2746 67.1511 18.312 67.1131C18.324 67.094 18.3491 67.0698 18.3609 67.0485C18.3981 67.0084 18.4353 66.9661 18.4721 66.9185C18.4835 66.8909 18.5078 66.8613 18.5324 66.8306C18.569 66.7819 18.5923 66.7321 18.6287 66.6791C18.6529 66.6442 18.6772 66.6082 18.7013 66.5722C18.7376 66.5181 18.7734 66.4609 18.7962 66.4056C18.8202 66.3665 18.8443 66.3283 18.8683 66.2892C18.9041 66.2298 18.9401 66.1694 18.9758 66.1079C18.9998 66.0687 19.0105 66.0303 19.0344 65.9911C19.0946 65.8968 19.1413 65.8035 19.1883 65.7122C19.1883 65.7122 19.1882 65.7122 20.0301 64.2002C25.3176 54.6908 32.2723 43.0615 38.4563 33.0111C40.2892 30.0215 40.6007 29.5172 40.6007 29.5172C40.637 29.4642 40.6731 29.4059 40.7094 29.3519C41.5156 28.0933 42.5413 26.7271 42.9298 25.7948C43.0443 25.5229 43.1074 25.2815 43.081 25.0957C43.0615 25.008 43.0168 24.9424 42.9465 24.8917C42.9185 24.8732 42.865 24.8684 42.8373 24.8542C42.7688 24.829 42.7133 24.8007 42.6455 24.7861C42.5915 24.776 42.5249 24.7764 42.4578 24.7713C42.3906 24.7643 42.323 24.7551 42.2429 24.7542C42.1628 24.7544 42.0965 24.7591 42.0167 24.7625C41.9368 24.766 41.8568 24.7662 41.7772 24.7718C41.4985 24.7945 41.2338 24.8269 41.0616 24.8455C41.0616 24.8455 41.0615 24.8454 39.7242 24.998C35.818 25.4405 31.8351 25.9345 28.0416 26.4626C27.8499 19.713 27.6823 11.9675 27.5089 5.28942C27.4594 3.43546 27.4591 3.43548 27.4591 3.43548C27.4555 3.38421 27.4647 3.32352 27.4609 3.26907C27.438 2.56077 27.3983 1.60794 27.1663 1.34522C27.1236 1.30643 27.0814 1.27722 27.0412 1.27469C27.001 1.27323 26.975 1.28466 26.9357 1.29488C26.9094 1.30099 26.8966 1.30402 26.8708 1.31664C26.845 1.33019 26.8064 1.35117 26.7811 1.37109C26.7555 1.38796 26.7298 1.40257 26.7046 1.42369C26.6663 1.44892 26.6417 1.48067 26.6038 1.51121C26.579 1.53751 26.5408 1.56166 26.5163 1.59234C26.4787 1.62713 26.4415 1.66951 26.4043 1.70961C26.3799 1.74348 26.3421 1.77616 26.318 1.81321C26.2812 1.85969 26.2317 1.91253 26.1952 1.96234C26.1711 2.00045 26.1334 2.03525 26.1095 2.07549C26.0603 2.13473 26.0112 2.19822 25.9756 2.26077C25.9382 2.29981 25.9143 2.33579 25.8904 2.3751C25.8295 2.45864 25.7687 2.54657 25.7081 2.63449C25.6962 2.65574 25.6846 2.67577 25.6594 2.69795C25.5872 2.81017 25.5149 2.92467 25.4297 3.04221C25.2245 3.35258 25.0201 3.67464 24.8276 3.97545C24.8276 3.97545 24.8277 3.97557 23.3974 6.23437C23.2531 6.46121 23.11 6.70278 22.9529 6.93692C18.9532 13.2954 11.4333 25.6195 11.4333 25.6195C11.074 26.2077 10.7259 26.7672 10.4027 27.2982C10.1394 27.7316 9.87613 28.1639 9.61282 28.5974C9.386 28.98 6.23725 34.1455 5.56856 35.2712C4.3837 37.2222 4.38372 37.2222 4.38372 37.2222C4.08452 37.7151 3.65141 38.3952 3.30708 39.006Z" fill="#EEDB5F"/>
</svg>
