<svg width="21" height="25" viewBox="0 0 21 25" fill="none" xmlns="http://www.w3.org/2000/svg">
<path d="M20.2046 6.16887C20.1514 5.64295 19.98 5.16779 19.6491 4.75244C19.3565 4.3849 18.9813 4.12192 18.6267 3.82609C18.4494 3.67966 17.9795 3.28223 17.9204 3.05811C17.8495 2.78618 17.9588 2.50827 18.2041 2.41862C18.5735 2.29312 19.1911 2.2961 19.5486 2.32001C19.853 2.34392 20.1662 2.23634 20.178 2.11083C20.1898 1.98533 20.0096 1.80005 19.7702 1.74328C19.5811 1.69845 19.2915 1.62972 19.1172 1.51318C18.8069 1.30102 18.4907 0.912544 18.0593 0.825886C17.4447 0.703366 17.0162 0.936449 16.8153 1.47135C16.4961 2.23634 16.703 3.21648 17.3738 3.93366C17.6752 4.25641 18.0268 4.5343 18.3637 4.82418C18.6119 5.0393 18.8305 5.27537 19.0403 5.53835C19.6018 6.24656 19.0078 7.54645 18.866 7.69589C18.3696 8.21581 17.9382 8.31145 17.0812 8.27561C16.2391 8.23974 14.0553 7.09823 12.9 7.06236C10.0396 6.97272 8.05388 8.30847 7.38308 8.6551C6.3784 9.17506 4.9482 9.20791 4.90392 9.22287C4.25677 9.27367 2.91523 9.32446 2.25035 9.55756C1.31364 9.82053 0.808342 10.2538 0.465568 11.222C0.359191 11.6404 0.338508 12.0199 0.489211 12.25C0.817207 12.752 1.70073 13.1703 2.10261 13.4005C2.30947 13.52 2.71725 13.3706 2.79701 13.3138C3.24618 13.006 3.64213 12.7639 4.17404 12.6862C4.2863 12.6683 5.03685 12.5339 5.41511 12.8147C5.68991 13.018 5.9263 13.1405 6.23658 13.2839C6.80392 13.5439 8.05388 13.8726 8.07753 13.8785C8.24594 13.9234 8.46165 14.0101 8.46165 14.1624C8.46165 14.3776 6.47594 16.057 6.36661 16.0988C5.86721 16.305 5.57761 16.6367 5.48602 17.1148C5.45646 17.2702 5.38852 17.4316 5.30281 17.5601C4.98074 18.0322 3.55348 20.0822 3.17527 20.6439C2.99499 20.9069 2.80884 21.0384 2.55177 21.0803C2.18241 21.14 1.90463 21.149 1.74802 21.4149C1.6505 21.5853 1.71256 21.917 1.77756 22.1321C1.85144 22.3772 1.6505 22.682 1.63573 22.7178C1.45843 23.0674 1.38456 23.4021 1.41115 23.7398C1.42002 23.8772 1.42888 24.197 1.65346 24.206C1.87803 24.2179 1.93713 24.0715 1.96373 24.0177C1.99622 23.952 2.12035 23.68 2.15578 23.6143C2.30058 23.3424 2.85316 22.7566 2.91523 22.6879C3.1132 22.4668 6.06816 18.352 6.06816 18.352C6.23066 18.1368 6.39912 17.9157 6.67392 17.8081C7.05511 17.6587 7.30923 17.3509 7.38308 16.9445C7.40082 16.8549 8.57987 15.9405 9.08217 15.555C9.26538 15.4145 10.3765 14.9633 10.3942 14.9693C10.3942 14.9782 9.37769 16.5262 9.0615 17.3479C9.01126 17.4794 8.92852 17.9276 9.02015 18.1547C9.16197 18.5044 9.46634 18.6568 9.81205 18.5522C9.91844 18.5193 10.013 18.4655 10.1046 18.4147C10.146 18.3908 10.1873 18.3699 10.2287 18.349C10.2701 18.3281 10.3085 18.3072 10.3499 18.2862C10.4444 18.2354 10.536 18.1876 10.6276 18.1578C10.9674 18.0442 11.3102 17.9366 11.653 17.829L12.3474 17.6109C12.832 17.4585 13.3166 17.3061 13.8013 17.1567C13.9076 17.1238 14.011 17.0849 14.144 17.088C14.2179 17.088 14.2977 17.1178 14.3243 17.2284C14.3243 17.2344 14.3804 17.5691 14.5843 17.7035C14.6877 17.7722 14.9094 17.826 15.0748 17.8201C15.2196 17.8141 15.4028 17.8559 15.4974 17.9396L15.6185 18.0442C15.7072 18.1189 15.8165 18.1607 15.8904 18.1816C15.9672 18.2026 16.109 18.2026 16.1918 18.1159C16.2804 18.0203 16.2479 17.8649 16.2361 17.8171C16.2184 17.7513 16.1829 17.7005 16.1563 17.6557L16.0824 17.5392C16.0115 17.4256 15.9436 17.312 15.8697 17.1985C15.6658 16.8847 15.4649 16.5739 15.258 16.2632C15.0423 15.9405 14.7084 15.812 14.2711 15.8807C14.1026 15.9076 10.406 17.067 10.3794 17.073C10.5774 16.7055 11.7623 15.0499 12.0933 14.8408C12.3386 14.6943 12.442 14.5539 12.8882 14.4762C13.7599 14.3268 15.651 13.8845 16.1209 13.5409C17.034 12.8715 17.1078 11.3505 17.093 11.0457C17.0753 10.7409 17.1728 10.5317 17.4358 10.3913C17.5658 10.3226 18.9724 9.53664 19.6609 8.3772C20.0746 7.69887 20.2873 6.97272 20.2046 6.16887Z" fill="white"/>
</svg>
