<svg width="20" height="20" viewBox="0 0 20 20" fill="none" xmlns="http://www.w3.org/2000/svg">
<path d="M19.8107 5.80505C19.8107 5.80505 19.6252 4.53069 19.0537 3.97112C18.3301 3.23466 17.5211 3.23105 17.15 3.18773C14.493 3 10.5037 3 10.5037 3H10.4963C10.4963 3 6.50703 3 3.85 3.18773C3.47891 3.23105 2.66992 3.23466 1.94629 3.97112C1.3748 4.53069 1.19297 5.80505 1.19297 5.80505C1.19297 5.80505 1 7.30325 1 8.79783V10.1986C1 11.6931 1.18926 13.1913 1.18926 13.1913C1.18926 13.1913 1.3748 14.4657 1.94258 15.0253C2.66621 15.7617 3.61621 15.7365 4.03926 15.8159C5.56074 15.9567 10.5 16 10.5 16C10.5 16 14.493 15.9928 17.15 15.8087C17.5211 15.7653 18.3301 15.7617 19.0537 15.0253C19.6252 14.4657 19.8107 13.1913 19.8107 13.1913C19.8107 13.1913 20 11.6967 20 10.1986V8.79783C20 7.30325 19.8107 5.80505 19.8107 5.80505ZM8.53691 11.8989V6.70397L13.6691 9.31047L8.53691 11.8989Z" fill="white"/>
</svg>
